<?xml version="1.0" encoding="utf-8" standalone="no"?>
<!DOCTYPE svg PUBLIC "-//W3C//DTD SVG 1.1//EN"
  "http://www.w3.org/Graphics/SVG/1.1/DTD/svg11.dtd">
<svg xmlns:xlink="http://www.w3.org/1999/xlink" width="453.543307pt" height="113.385827pt" viewBox="0 0 453.543307 113.385827" xmlns="http://www.w3.org/2000/svg" version="1.1">
 <metadata>
  <rdf:RDF xmlns:dc="http://purl.org/dc/elements/1.1/" xmlns:cc="http://creativecommons.org/ns#" xmlns:rdf="http://www.w3.org/1999/02/22-rdf-syntax-ns#">
   <cc:Work>
    <dc:type rdf:resource="http://purl.org/dc/dcmitype/StillImage"/>
    <dc:date>2024-10-17T19:22:45.653399</dc:date>
    <dc:format>image/svg+xml</dc:format>
    <dc:creator>
     <cc:Agent>
      <dc:title>Matplotlib v3.8.2, https://matplotlib.org/</dc:title>
     </cc:Agent>
    </dc:creator>
   </cc:Work>
  </rdf:RDF>
 </metadata>
 <defs>
  <style type="text/css">*{stroke-linejoin: round; stroke-linecap: butt}</style>
 </defs>
 <g id="figure_1">
  <g id="patch_1">
   <path d="M 0 113.385827 
L 453.543307 113.385827 
L 453.543307 0 
L 0 0 
z
" style="fill: #ffffff"/>
  </g>
  <g id="axes_1">
   <g id="patch_2">
    <path d="M 34.691719 81.855046 
L 148.449579 81.855046 
L 148.449579 7.56 
L 34.691719 7.56 
z
" style="fill: #ffffff"/>
   </g>
   <g id="PolyCollection_1">
    <defs>
     <path id="mcfdb68d427" d="M 39.862531 -74.55478 
L 39.862531 -67.095881 
L 65.765036 -82.657108 
L 91.602946 -99.222945 
L 117.440857 -98.565569 
L 143.278767 -94.568634 
L 143.278767 -99.186583 
L 143.278767 -99.186583 
L 117.440857 -102.078459 
L 91.602946 -102.448779 
L 65.765036 -88.682059 
L 39.862531 -74.55478 
z
" style="stroke: #4878d0; stroke-opacity: 0.2"/>
    </defs>
    <g clip-path="url(#p86056bb6a7)">
     <use xlink:href="#mcfdb68d427" x="0" y="113.385827" style="fill: #4878d0; fill-opacity: 0.2; stroke: #4878d0; stroke-opacity: 0.2"/>
    </g>
   </g>
   <g id="PolyCollection_2">
    <defs>
     <path id="m62e2ce9246" d="M 39.862531 -40.417243 
L 39.862531 -35.181195 
L 65.765036 -34.907829 
L 91.602946 -46.158336 
L 117.440857 -47.237723 
L 143.278767 -47.42533 
L 143.278767 -53.794886 
L 143.278767 -53.794886 
L 117.440857 -53.489704 
L 91.602946 -52.059794 
L 65.765036 -40.835512 
L 39.862531 -40.417243 
z
" style="stroke: #ee854a; stroke-opacity: 0.2"/>
    </defs>
    <g clip-path="url(#p86056bb6a7)">
     <use xlink:href="#m62e2ce9246" x="0" y="113.385827" style="fill: #ee854a; fill-opacity: 0.2; stroke: #ee854a; stroke-opacity: 0.2"/>
    </g>
   </g>
   <g id="PolyCollection_3">
    <defs>
     <path id="m435167c7d3" d="M 39.862531 -44.357691 
L 39.862531 -38.937361 
L 65.765036 -45.962928 
L 91.602946 -77.081801 
L 117.440857 -81.92872 
L 143.278767 -77.824671 
L 143.278767 -84.134037 
L 143.278767 -84.134037 
L 117.440857 -88.457259 
L 91.602946 -83.338596 
L 65.765036 -52.356882 
L 39.862531 -44.357691 
z
" style="stroke: #6acc64; stroke-opacity: 0.2"/>
    </defs>
    <g clip-path="url(#p86056bb6a7)">
     <use xlink:href="#m435167c7d3" x="0" y="113.385827" style="fill: #6acc64; fill-opacity: 0.2; stroke: #6acc64; stroke-opacity: 0.2"/>
    </g>
   </g>
   <g id="PolyCollection_4">
    <defs>
     <path id="m58594ba741" d="M 39.862531 -67.814369 
L 39.862531 -60.353752 
L 65.765036 -58.26006 
L 91.602946 -59.365997 
L 117.440857 -62.14753 
L 143.278767 -60.182829 
L 143.278767 -67.747718 
L 143.278767 -67.747718 
L 117.440857 -69.64943 
L 91.602946 -66.729927 
L 65.765036 -65.736329 
L 39.862531 -67.814369 
z
" style="stroke: #d65f5f; stroke-opacity: 0.2"/>
    </defs>
    <g clip-path="url(#p86056bb6a7)">
     <use xlink:href="#m58594ba741" x="0" y="113.385827" style="fill: #d65f5f; fill-opacity: 0.2; stroke: #d65f5f; stroke-opacity: 0.2"/>
    </g>
   </g>
   <g id="matplotlib.axis_1">
    <g id="xtick_1">
     <g id="line2d_1">
      <defs>
       <path id="m7a9f144369" d="M 0 0 
L 0 3.5 
" style="stroke: #000000; stroke-width: 0.8"/>
      </defs>
      <g>
       <use xlink:href="#m7a9f144369" x="47.168323" y="81.855046" style="stroke: #000000; stroke-width: 0.8"/>
      </g>
     </g>
     <g id="text_1">
      <text style="font: 7px 'arial'; text-anchor: middle" x="47.168323" y="93.865514" transform="rotate(-0 47.168323 93.865514)">200</text>
     </g>
    </g>
    <g id="xtick_2">
     <g id="line2d_2">
      <g>
       <use xlink:href="#m7a9f144369" x="74.597103" y="81.855046" style="stroke: #000000; stroke-width: 0.8"/>
      </g>
     </g>
     <g id="text_2">
      <text style="font: 7px 'arial'; text-anchor: middle" x="74.597103" y="93.865514" transform="rotate(-0 74.597103 93.865514)">400</text>
     </g>
    </g>
    <g id="xtick_3">
     <g id="line2d_3">
      <g>
       <use xlink:href="#m7a9f144369" x="102.025882" y="81.855046" style="stroke: #000000; stroke-width: 0.8"/>
      </g>
     </g>
     <g id="text_3">
      <text style="font: 7px 'arial'; text-anchor: middle" x="102.025882" y="93.865514" transform="rotate(-0 102.025882 93.865514)">600</text>
     </g>
    </g>
    <g id="xtick_4">
     <g id="line2d_4">
      <g>
       <use xlink:href="#m7a9f144369" x="129.454662" y="81.855046" style="stroke: #000000; stroke-width: 0.8"/>
      </g>
     </g>
     <g id="text_4">
      <text style="font: 7px 'arial'; text-anchor: middle" x="129.454662" y="93.865514" transform="rotate(-0 129.454662 93.865514)">800</text>
     </g>
    </g>
    <g id="text_5">
     <text style="font: 7px 'arial'; text-anchor: middle" x="91.570649" y="104.352546" transform="rotate(-0 91.570649 104.352546)">Coverage</text>
    </g>
   </g>
   <g id="matplotlib.axis_2">
    <g id="ytick_1">
     <g id="line2d_5">
      <defs>
       <path id="m1a98a1fb95" d="M 0 0 
L -3.5 0 
" style="stroke: #000000; stroke-width: 0.8"/>
      </defs>
      <g>
       <use xlink:href="#m1a98a1fb95" x="34.691719" y="71.171922" style="stroke: #000000; stroke-width: 0.8"/>
      </g>
     </g>
     <g id="text_6">
      <text style="font: 7px 'arial'; text-anchor: end" x="27.691719" y="73.677157" transform="rotate(-0 27.691719 73.677157)">0.2</text>
     </g>
    </g>
    <g id="ytick_2">
     <g id="line2d_6">
      <g>
       <use xlink:href="#m1a98a1fb95" x="34.691719" y="54.558158" style="stroke: #000000; stroke-width: 0.8"/>
      </g>
     </g>
     <g id="text_7">
      <text style="font: 7px 'arial'; text-anchor: end" x="27.691719" y="57.063393" transform="rotate(-0 27.691719 57.063393)">0.4</text>
     </g>
    </g>
    <g id="ytick_3">
     <g id="line2d_7">
      <g>
       <use xlink:href="#m1a98a1fb95" x="34.691719" y="37.944394" style="stroke: #000000; stroke-width: 0.8"/>
      </g>
     </g>
     <g id="text_8">
      <text style="font: 7px 'arial'; text-anchor: end" x="27.691719" y="40.449628" transform="rotate(-0 27.691719 40.449628)">0.6</text>
     </g>
    </g>
    <g id="ytick_4">
     <g id="line2d_8">
      <g>
       <use xlink:href="#m1a98a1fb95" x="34.691719" y="21.33063" style="stroke: #000000; stroke-width: 0.8"/>
      </g>
     </g>
     <g id="text_9">
      <text style="font: 7px 'arial'; text-anchor: end" x="27.691719" y="23.835864" transform="rotate(-0 27.691719 23.835864)">0.8</text>
     </g>
    </g>
    <g id="text_10">
     <text style="font: 7px 'arial'; text-anchor: middle" x="12.570469" y="44.707523" transform="rotate(-90 12.570469 44.707523)">Fraction recovered</text>
    </g>
   </g>
   <g id="line2d_9">
    <path d="M 39.862531 42.560496 
L 65.765036 27.716243 
L 91.602946 12.549964 
L 117.440857 13.063813 
L 143.278767 16.508218 
" clip-path="url(#p86056bb6a7)" style="fill: none; stroke: #4878d0; stroke-width: 1.5; stroke-linecap: square"/>
    <defs>
     <path id="m5c52b7044d" d="M 0 3 
C 0.795609 3 1.55874 2.683901 2.12132 2.12132 
C 2.683901 1.55874 3 0.795609 3 0 
C 3 -0.795609 2.683901 -1.55874 2.12132 -2.12132 
C 1.55874 -2.683901 0.795609 -3 0 -3 
C -0.795609 -3 -1.55874 -2.683901 -2.12132 -2.12132 
C -2.683901 -1.55874 -3 -0.795609 -3 0 
C -3 0.795609 -2.683901 1.55874 -2.12132 2.12132 
C -1.55874 2.683901 -0.795609 3 0 3 
z
" style="stroke: #ffffff; stroke-width: 0.75"/>
    </defs>
    <g clip-path="url(#p86056bb6a7)">
     <use xlink:href="#m5c52b7044d" x="39.862531" y="42.560496" style="fill: #4878d0; stroke: #ffffff; stroke-width: 0.75"/>
     <use xlink:href="#m5c52b7044d" x="65.765036" y="27.716243" style="fill: #4878d0; stroke: #ffffff; stroke-width: 0.75"/>
     <use xlink:href="#m5c52b7044d" x="91.602946" y="12.549964" style="fill: #4878d0; stroke: #ffffff; stroke-width: 0.75"/>
     <use xlink:href="#m5c52b7044d" x="117.440857" y="13.063813" style="fill: #4878d0; stroke: #ffffff; stroke-width: 0.75"/>
     <use xlink:href="#m5c52b7044d" x="143.278767" y="16.508218" style="fill: #4878d0; stroke: #ffffff; stroke-width: 0.75"/>
    </g>
   </g>
   <g id="line2d_10">
    <path d="M 39.862531 75.586608 
L 65.765036 75.514156 
L 91.602946 64.276762 
L 117.440857 63.022113 
L 143.278767 62.775719 
" clip-path="url(#p86056bb6a7)" style="fill: none; stroke: #ee854a; stroke-width: 1.5; stroke-linecap: square"/>
    <defs>
     <path id="mb8bce8c351" d="M 0 3 
C 0.795609 3 1.55874 2.683901 2.12132 2.12132 
C 2.683901 1.55874 3 0.795609 3 0 
C 3 -0.795609 2.683901 -1.55874 2.12132 -2.12132 
C 1.55874 -2.683901 0.795609 -3 0 -3 
C -0.795609 -3 -1.55874 -2.683901 -2.12132 -2.12132 
C -2.683901 -1.55874 -3 -0.795609 -3 0 
C -3 0.795609 -2.683901 1.55874 -2.12132 2.12132 
C -1.55874 2.683901 -0.795609 3 0 3 
z
" style="stroke: #ffffff; stroke-width: 0.75"/>
    </defs>
    <g clip-path="url(#p86056bb6a7)">
     <use xlink:href="#mb8bce8c351" x="39.862531" y="75.586608" style="fill: #ee854a; stroke: #ffffff; stroke-width: 0.75"/>
     <use xlink:href="#mb8bce8c351" x="65.765036" y="75.514156" style="fill: #ee854a; stroke: #ffffff; stroke-width: 0.75"/>
     <use xlink:href="#mb8bce8c351" x="91.602946" y="64.276762" style="fill: #ee854a; stroke: #ffffff; stroke-width: 0.75"/>
     <use xlink:href="#mb8bce8c351" x="117.440857" y="63.022113" style="fill: #ee854a; stroke: #ffffff; stroke-width: 0.75"/>
     <use xlink:href="#mb8bce8c351" x="143.278767" y="62.775719" style="fill: #ee854a; stroke: #ffffff; stroke-width: 0.75"/>
    </g>
   </g>
   <g id="line2d_11">
    <path d="M 39.862531 71.738301 
L 65.765036 64.225922 
L 91.602946 33.175628 
L 117.440857 28.192837 
L 143.278767 32.406473 
" clip-path="url(#p86056bb6a7)" style="fill: none; stroke: #6acc64; stroke-width: 1.5; stroke-linecap: square"/>
    <defs>
     <path id="mebc1540469" d="M 0 3 
C 0.795609 3 1.55874 2.683901 2.12132 2.12132 
C 2.683901 1.55874 3 0.795609 3 0 
C 3 -0.795609 2.683901 -1.55874 2.12132 -2.12132 
C 1.55874 -2.683901 0.795609 -3 0 -3 
C -0.795609 -3 -1.55874 -2.683901 -2.12132 -2.12132 
C -2.683901 -1.55874 -3 -0.795609 -3 0 
C -3 0.795609 -2.683901 1.55874 -2.12132 2.12132 
C -1.55874 2.683901 -0.795609 3 0 3 
z
" style="stroke: #ffffff; stroke-width: 0.75"/>
    </defs>
    <g clip-path="url(#p86056bb6a7)">
     <use xlink:href="#mebc1540469" x="39.862531" y="71.738301" style="fill: #6acc64; stroke: #ffffff; stroke-width: 0.75"/>
     <use xlink:href="#mebc1540469" x="65.765036" y="64.225922" style="fill: #6acc64; stroke: #ffffff; stroke-width: 0.75"/>
     <use xlink:href="#mebc1540469" x="91.602946" y="33.175628" style="fill: #6acc64; stroke: #ffffff; stroke-width: 0.75"/>
     <use xlink:href="#mebc1540469" x="117.440857" y="28.192837" style="fill: #6acc64; stroke: #ffffff; stroke-width: 0.75"/>
     <use xlink:href="#mebc1540469" x="143.278767" y="32.406473" style="fill: #6acc64; stroke: #ffffff; stroke-width: 0.75"/>
    </g>
   </g>
   <g id="line2d_12">
    <path d="M 39.862531 49.301767 
L 65.765036 51.387632 
L 91.602946 50.337865 
L 117.440857 47.487347 
L 143.278767 49.420553 
" clip-path="url(#p86056bb6a7)" style="fill: none; stroke: #d65f5f; stroke-width: 1.5; stroke-linecap: square"/>
    <defs>
     <path id="mdae210d9b1" d="M 0 3 
C 0.795609 3 1.55874 2.683901 2.12132 2.12132 
C 2.683901 1.55874 3 0.795609 3 0 
C 3 -0.795609 2.683901 -1.55874 2.12132 -2.12132 
C 1.55874 -2.683901 0.795609 -3 0 -3 
C -0.795609 -3 -1.55874 -2.683901 -2.12132 -2.12132 
C -2.683901 -1.55874 -3 -0.795609 -3 0 
C -3 0.795609 -2.683901 1.55874 -2.12132 2.12132 
C -1.55874 2.683901 -0.795609 3 0 3 
z
" style="stroke: #ffffff; stroke-width: 0.75"/>
    </defs>
    <g clip-path="url(#p86056bb6a7)">
     <use xlink:href="#mdae210d9b1" x="39.862531" y="49.301767" style="fill: #d65f5f; stroke: #ffffff; stroke-width: 0.75"/>
     <use xlink:href="#mdae210d9b1" x="65.765036" y="51.387632" style="fill: #d65f5f; stroke: #ffffff; stroke-width: 0.75"/>
     <use xlink:href="#mdae210d9b1" x="91.602946" y="50.337865" style="fill: #d65f5f; stroke: #ffffff; stroke-width: 0.75"/>
     <use xlink:href="#mdae210d9b1" x="117.440857" y="47.487347" style="fill: #d65f5f; stroke: #ffffff; stroke-width: 0.75"/>
     <use xlink:href="#mdae210d9b1" x="143.278767" y="49.420553" style="fill: #d65f5f; stroke: #ffffff; stroke-width: 0.75"/>
    </g>
   </g>
   <g id="line2d_13"/>
   <g id="line2d_14"/>
   <g id="line2d_15"/>
   <g id="line2d_16"/>
   <g id="patch_3">
    <path d="M 34.691719 81.855046 
L 34.691719 7.56 
" style="fill: none; stroke: #000000; stroke-width: 0.8; stroke-linejoin: miter; stroke-linecap: square"/>
   </g>
   <g id="patch_4">
    <path d="M 34.691719 81.855046 
L 148.449579 81.855046 
" style="fill: none; stroke: #000000; stroke-width: 0.8; stroke-linejoin: miter; stroke-linecap: square"/>
   </g>
  </g>
  <g id="axes_2">
   <g id="patch_5">
    <path d="M 183.141298 81.855046 
L 296.899158 81.855046 
L 296.899158 7.56 
L 183.141298 7.56 
z
" style="fill: #ffffff"/>
   </g>
   <g id="PolyCollection_5">
    <defs>
     <path id="m840d3cc3ab" d="M 188.312109 -102.448779 
L 188.312109 -80.978988 
L 208.995357 -90.903439 
L 229.678604 -88.973382 
L 250.361851 -95.40104 
L 271.045098 -82.390494 
L 291.728346 -81.27441 
L 291.728346 -84.29624 
L 291.728346 -84.29624 
L 271.045098 -87.692801 
L 250.361851 -100.029583 
L 229.678604 -98.575858 
L 208.995357 -100.331525 
L 188.312109 -102.448779 
z
" style="stroke: #4878d0; stroke-opacity: 0.2"/>
    </defs>
    <g clip-path="url(#ped8d5ff96b)">
     <use xlink:href="#m840d3cc3ab" x="0" y="113.385827" style="fill: #4878d0; fill-opacity: 0.2; stroke: #4878d0; stroke-opacity: 0.2"/>
    </g>
   </g>
   <g id="PolyCollection_6">
    <defs>
     <path id="m1e7a9bc43e" d="M 188.312109 -94.837679 
L 188.312109 -67.120298 
L 208.995357 -53.673916 
L 229.678604 -51.498177 
L 250.361851 -45.323131 
L 271.045098 -34.907829 
L 291.728346 -41.296176 
L 291.728346 -43.914584 
L 291.728346 -43.914584 
L 271.045098 -38.968954 
L 250.361851 -54.350535 
L 229.678604 -66.250803 
L 208.995357 -69.233831 
L 188.312109 -94.837679 
z
" style="stroke: #ee854a; stroke-opacity: 0.2"/>
    </defs>
    <g clip-path="url(#ped8d5ff96b)">
     <use xlink:href="#m1e7a9bc43e" x="0" y="113.385827" style="fill: #ee854a; fill-opacity: 0.2; stroke: #ee854a; stroke-opacity: 0.2"/>
    </g>
   </g>
   <g id="PolyCollection_7">
    <defs>
     <path id="mde810c283f" d="M 188.312109 -102.448779 
L 188.312109 -80.978988 
L 208.995357 -67.632859 
L 229.678604 -57.657017 
L 250.361851 -73.671134 
L 271.045098 -62.662652 
L 291.728346 -59.159927 
L 291.728346 -62.772919 
L 291.728346 -62.772919 
L 271.045098 -68.963892 
L 250.361851 -83.134093 
L 229.678604 -72.096273 
L 208.995357 -82.614322 
L 188.312109 -102.448779 
z
" style="stroke: #6acc64; stroke-opacity: 0.2"/>
    </defs>
    <g clip-path="url(#ped8d5ff96b)">
     <use xlink:href="#mde810c283f" x="0" y="113.385827" style="fill: #6acc64; fill-opacity: 0.2; stroke: #6acc64; stroke-opacity: 0.2"/>
    </g>
   </g>
   <g id="PolyCollection_8">
    <defs>
     <path id="m2a75dbe0f5" d="M 188.312109 -100.916089 
L 188.312109 -99.105931 
L 208.995357 -88.338242 
L 229.678604 -73.612681 
L 250.361851 -93.463087 
L 271.045098 -65.920873 
L 291.728346 -39.628185 
L 291.728346 -42.580668 
L 291.728346 -42.580668 
L 271.045098 -71.642158 
L 250.361851 -97.994341 
L 229.678604 -86.463131 
L 208.995357 -97.421456 
L 188.312109 -100.916089 
z
" style="stroke: #d65f5f; stroke-opacity: 0.2"/>
    </defs>
    <g clip-path="url(#ped8d5ff96b)">
     <use xlink:href="#m2a75dbe0f5" x="0" y="113.385827" style="fill: #d65f5f; fill-opacity: 0.2; stroke: #d65f5f; stroke-opacity: 0.2"/>
    </g>
   </g>
   <g id="matplotlib.axis_3">
    <g id="xtick_5">
     <g id="line2d_17">
      <g>
       <use xlink:href="#m7a9f144369" x="198.394544" y="81.855046" style="stroke: #000000; stroke-width: 0.8"/>
      </g>
     </g>
     <g id="text_11">
      <text style="font: 7px 'arial'; text-anchor: middle" x="198.394544" y="93.865514" transform="rotate(-0 198.394544 93.865514)">98.0</text>
     </g>
    </g>
    <g id="xtick_6">
     <g id="line2d_18">
      <g>
       <use xlink:href="#m7a9f144369" x="224.313401" y="81.855046" style="stroke: #000000; stroke-width: 0.8"/>
      </g>
     </g>
     <g id="text_12">
      <text style="font: 7px 'arial'; text-anchor: middle" x="224.313401" y="93.865514" transform="rotate(-0 224.313401 93.865514)">98.5</text>
     </g>
    </g>
    <g id="xtick_7">
     <g id="line2d_19">
      <g>
       <use xlink:href="#m7a9f144369" x="250.232257" y="81.855046" style="stroke: #000000; stroke-width: 0.8"/>
      </g>
     </g>
     <g id="text_13">
      <text style="font: 7px 'arial'; text-anchor: middle" x="250.232257" y="93.865514" transform="rotate(-0 250.232257 93.865514)">99.0</text>
     </g>
    </g>
    <g id="xtick_8">
     <g id="line2d_20">
      <g>
       <use xlink:href="#m7a9f144369" x="276.151113" y="81.855046" style="stroke: #000000; stroke-width: 0.8"/>
      </g>
     </g>
     <g id="text_14">
      <text style="font: 7px 'arial'; text-anchor: middle" x="276.151113" y="93.865514" transform="rotate(-0 276.151113 93.865514)">99.5</text>
     </g>
    </g>
    <g id="text_15">
     <text style="font: 7px 'arial'; text-anchor: middle" x="240.020228" y="104.352546" transform="rotate(-0 240.020228 104.352546)">% identity to ref.</text>
    </g>
   </g>
   <g id="matplotlib.axis_4">
    <g id="ytick_5">
     <g id="line2d_21">
      <g>
       <use xlink:href="#m1a98a1fb95" x="183.141298" y="71.052462" style="stroke: #000000; stroke-width: 0.8"/>
      </g>
     </g>
     <g id="text_16">
      <text style="font: 7px 'arial'; text-anchor: end" x="176.141298" y="73.557697" transform="rotate(-0 176.141298 73.557697)">0.2</text>
     </g>
    </g>
    <g id="ytick_6">
     <g id="line2d_22">
      <g>
       <use xlink:href="#m1a98a1fb95" x="183.141298" y="56.023609" style="stroke: #000000; stroke-width: 0.8"/>
      </g>
     </g>
     <g id="text_17">
      <text style="font: 7px 'arial'; text-anchor: end" x="176.141298" y="58.528843" transform="rotate(-0 176.141298 58.528843)">0.4</text>
     </g>
    </g>
    <g id="ytick_7">
     <g id="line2d_23">
      <g>
       <use xlink:href="#m1a98a1fb95" x="183.141298" y="40.994755" style="stroke: #000000; stroke-width: 0.8"/>
      </g>
     </g>
     <g id="text_18">
      <text style="font: 7px 'arial'; text-anchor: end" x="176.141298" y="43.499989" transform="rotate(-0 176.141298 43.499989)">0.6</text>
     </g>
    </g>
    <g id="ytick_8">
     <g id="line2d_24">
      <g>
       <use xlink:href="#m1a98a1fb95" x="183.141298" y="25.965901" style="stroke: #000000; stroke-width: 0.8"/>
      </g>
     </g>
     <g id="text_19">
      <text style="font: 7px 'arial'; text-anchor: end" x="176.141298" y="28.471136" transform="rotate(-0 176.141298 28.471136)">0.8</text>
     </g>
    </g>
    <g id="ytick_9">
     <g id="line2d_25">
      <g>
       <use xlink:href="#m1a98a1fb95" x="183.141298" y="10.937048" style="stroke: #000000; stroke-width: 0.8"/>
      </g>
     </g>
     <g id="text_20">
      <text style="font: 7px 'arial'; text-anchor: end" x="176.141298" y="13.442282" transform="rotate(-0 176.141298 13.442282)">1.0</text>
     </g>
    </g>
    <g id="text_21">
     <text style="font: 7px 'arial'; text-anchor: middle" x="161.020048" y="44.707523" transform="rotate(-90 161.020048 44.707523)">Fraction recovered</text>
    </g>
   </g>
   <g id="line2d_26">
    <path d="M 188.312109 21.671943 
L 208.995357 17.768345 
L 229.678604 19.611207 
L 250.361851 15.670516 
L 271.045098 28.34418 
L 291.728346 30.600502 
" clip-path="url(#ped8d5ff96b)" style="fill: none; stroke: #4878d0; stroke-width: 1.5; stroke-linecap: square"/>
    <g clip-path="url(#ped8d5ff96b)">
     <use xlink:href="#m5c52b7044d" x="188.312109" y="21.671943" style="fill: #4878d0; stroke: #ffffff; stroke-width: 0.75"/>
     <use xlink:href="#m5c52b7044d" x="208.995357" y="17.768345" style="fill: #4878d0; stroke: #ffffff; stroke-width: 0.75"/>
     <use xlink:href="#m5c52b7044d" x="229.678604" y="19.611207" style="fill: #4878d0; stroke: #ffffff; stroke-width: 0.75"/>
     <use xlink:href="#m5c52b7044d" x="250.361851" y="15.670516" style="fill: #4878d0; stroke: #ffffff; stroke-width: 0.75"/>
     <use xlink:href="#m5c52b7044d" x="271.045098" y="28.34418" style="fill: #4878d0; stroke: #ffffff; stroke-width: 0.75"/>
     <use xlink:href="#m5c52b7044d" x="291.728346" y="30.600502" style="fill: #4878d0; stroke: #ffffff; stroke-width: 0.75"/>
    </g>
   </g>
   <g id="line2d_27">
    <path d="M 188.312109 32.406839 
L 208.995357 51.931954 
L 229.678604 54.511337 
L 250.361851 63.548994 
L 271.045098 76.447435 
L 291.728346 70.780447 
" clip-path="url(#ped8d5ff96b)" style="fill: none; stroke: #ee854a; stroke-width: 1.5; stroke-linecap: square"/>
    <g clip-path="url(#ped8d5ff96b)">
     <use xlink:href="#mb8bce8c351" x="188.312109" y="32.406839" style="fill: #ee854a; stroke: #ffffff; stroke-width: 0.75"/>
     <use xlink:href="#mb8bce8c351" x="208.995357" y="51.931954" style="fill: #ee854a; stroke: #ffffff; stroke-width: 0.75"/>
     <use xlink:href="#mb8bce8c351" x="229.678604" y="54.511337" style="fill: #ee854a; stroke: #ffffff; stroke-width: 0.75"/>
     <use xlink:href="#mb8bce8c351" x="250.361851" y="63.548994" style="fill: #ee854a; stroke: #ffffff; stroke-width: 0.75"/>
     <use xlink:href="#mb8bce8c351" x="271.045098" y="76.447435" style="fill: #ee854a; stroke: #ffffff; stroke-width: 0.75"/>
     <use xlink:href="#mb8bce8c351" x="291.728346" y="70.780447" style="fill: #ee854a; stroke: #ffffff; stroke-width: 0.75"/>
    </g>
   </g>
   <g id="line2d_28">
    <path d="M 188.312109 21.671943 
L 208.995357 38.262236 
L 229.678604 48.509182 
L 250.361851 34.983213 
L 271.045098 47.572554 
L 291.728346 52.419404 
" clip-path="url(#ped8d5ff96b)" style="fill: none; stroke: #6acc64; stroke-width: 1.5; stroke-linecap: square"/>
    <g clip-path="url(#ped8d5ff96b)">
     <use xlink:href="#mebc1540469" x="188.312109" y="21.671943" style="fill: #6acc64; stroke: #ffffff; stroke-width: 0.75"/>
     <use xlink:href="#mebc1540469" x="208.995357" y="38.262236" style="fill: #6acc64; stroke: #ffffff; stroke-width: 0.75"/>
     <use xlink:href="#mebc1540469" x="229.678604" y="48.509182" style="fill: #6acc64; stroke: #ffffff; stroke-width: 0.75"/>
     <use xlink:href="#mebc1540469" x="250.361851" y="34.983213" style="fill: #6acc64; stroke: #ffffff; stroke-width: 0.75"/>
     <use xlink:href="#mebc1540469" x="271.045098" y="47.572554" style="fill: #6acc64; stroke: #ffffff; stroke-width: 0.75"/>
     <use xlink:href="#mebc1540469" x="291.728346" y="52.419404" style="fill: #6acc64; stroke: #ffffff; stroke-width: 0.75"/>
    </g>
   </g>
   <g id="line2d_29">
    <path d="M 188.312109 13.374817 
L 208.995357 20.505978 
L 229.678604 33.347921 
L 250.361851 17.657113 
L 271.045098 44.604311 
L 291.728346 72.2814 
" clip-path="url(#ped8d5ff96b)" style="fill: none; stroke: #d65f5f; stroke-width: 1.5; stroke-linecap: square"/>
    <g clip-path="url(#ped8d5ff96b)">
     <use xlink:href="#mdae210d9b1" x="188.312109" y="13.374817" style="fill: #d65f5f; stroke: #ffffff; stroke-width: 0.75"/>
     <use xlink:href="#mdae210d9b1" x="208.995357" y="20.505978" style="fill: #d65f5f; stroke: #ffffff; stroke-width: 0.75"/>
     <use xlink:href="#mdae210d9b1" x="229.678604" y="33.347921" style="fill: #d65f5f; stroke: #ffffff; stroke-width: 0.75"/>
     <use xlink:href="#mdae210d9b1" x="250.361851" y="17.657113" style="fill: #d65f5f; stroke: #ffffff; stroke-width: 0.75"/>
     <use xlink:href="#mdae210d9b1" x="271.045098" y="44.604311" style="fill: #d65f5f; stroke: #ffffff; stroke-width: 0.75"/>
     <use xlink:href="#mdae210d9b1" x="291.728346" y="72.2814" style="fill: #d65f5f; stroke: #ffffff; stroke-width: 0.75"/>
    </g>
   </g>
   <g id="line2d_30"/>
   <g id="line2d_31"/>
   <g id="line2d_32"/>
   <g id="line2d_33"/>
   <g id="patch_6">
    <path d="M 183.141298 81.855046 
L 183.141298 7.56 
" style="fill: none; stroke: #000000; stroke-width: 0.8; stroke-linejoin: miter; stroke-linecap: square"/>
   </g>
   <g id="patch_7">
    <path d="M 183.141298 81.855046 
L 296.899158 81.855046 
" style="fill: none; stroke: #000000; stroke-width: 0.8; stroke-linejoin: miter; stroke-linecap: square"/>
   </g>
  </g>
  <g id="axes_3">
   <g id="patch_8">
    <path d="M 331.590876 81.855046 
L 445.348736 81.855046 
L 445.348736 7.56 
L 331.590876 7.56 
z
" style="fill: #ffffff"/>
   </g>
   <g id="PolyCollection_9">
    <defs>
     <path id="mbd6c72d289" d="M 336.761688 -87.886966 
L 336.761688 -85.548166 
L 362.666218 -95.15661 
L 388.528014 -92.490949 
L 414.389809 -97.50783 
L 440.177925 -97.040038 
L 440.177925 -102.448779 
L 440.177925 -102.448779 
L 414.389809 -102.448779 
L 388.528014 -97.334835 
L 362.666218 -98.145817 
L 336.761688 -87.886966 
z
" style="stroke: #4878d0; stroke-opacity: 0.2"/>
    </defs>
    <g clip-path="url(#pa6374a8aa2)">
     <use xlink:href="#mbd6c72d289" x="0" y="113.385827" style="fill: #4878d0; fill-opacity: 0.2; stroke: #4878d0; stroke-opacity: 0.2"/>
    </g>
   </g>
   <g id="PolyCollection_10">
    <defs>
     <path id="m80350d98a9" d="M 336.761688 -48.270518 
L 336.761688 -45.913441 
L 362.666218 -53.434354 
L 388.528014 -64.20609 
L 414.389809 -53.699403 
L 440.177925 -59.178848 
L 440.177925 -102.448779 
L 440.177925 -102.448779 
L 414.389809 -86.435594 
L 388.528014 -79.202618 
L 362.666218 -62.42116 
L 336.761688 -48.270518 
z
" style="stroke: #ee854a; stroke-opacity: 0.2"/>
    </defs>
    <g clip-path="url(#pa6374a8aa2)">
     <use xlink:href="#m80350d98a9" x="0" y="113.385827" style="fill: #ee854a; fill-opacity: 0.2; stroke: #ee854a; stroke-opacity: 0.2"/>
    </g>
   </g>
   <g id="PolyCollection_11">
    <defs>
     <path id="m8b1870d49a" d="M 336.761688 -67.42644 
L 336.761688 -64.497005 
L 362.666218 -79.181877 
L 388.528014 -84.140572 
L 414.389809 -90.113053 
L 440.177925 -75.405072 
L 440.177925 -102.448779 
L 440.177925 -102.448779 
L 414.389809 -102.448779 
L 388.528014 -92.732747 
L 362.666218 -87.172499 
L 336.761688 -67.42644 
z
" style="stroke: #6acc64; stroke-opacity: 0.2"/>
    </defs>
    <g clip-path="url(#pa6374a8aa2)">
     <use xlink:href="#m8b1870d49a" x="0" y="113.385827" style="fill: #6acc64; fill-opacity: 0.2; stroke: #6acc64; stroke-opacity: 0.2"/>
    </g>
   </g>
   <g id="PolyCollection_12">
    <defs>
     <path id="m1ff11268ea" d="M 336.761688 -66.435676 
L 336.761688 -63.431642 
L 362.666218 -54.687681 
L 388.528014 -52.567711 
L 414.389809 -49.328888 
L 440.177925 -34.907829 
L 440.177925 -97.426376 
L 440.177925 -97.426376 
L 414.389809 -90.059003 
L 388.528014 -71.810588 
L 362.666218 -64.568674 
L 336.761688 -66.435676 
z
" style="stroke: #d65f5f; stroke-opacity: 0.2"/>
    </defs>
    <g clip-path="url(#pa6374a8aa2)">
     <use xlink:href="#m1ff11268ea" x="0" y="113.385827" style="fill: #d65f5f; fill-opacity: 0.2; stroke: #d65f5f; stroke-opacity: 0.2"/>
    </g>
   </g>
   <g id="matplotlib.axis_5">
    <g id="xtick_9">
     <g id="line2d_34">
      <g>
       <use xlink:href="#m7a9f144369" x="352.277292" y="81.855046" style="stroke: #000000; stroke-width: 0.8"/>
      </g>
     </g>
     <g id="text_22">
      <text style="font: 7px 'arial'; text-anchor: middle" x="352.277292" y="93.865514" transform="rotate(-0 352.277292 93.865514)">0.2</text>
     </g>
    </g>
    <g id="xtick_10">
     <g id="line2d_35">
      <g>
       <use xlink:href="#m7a9f144369" x="381.749424" y="81.855046" style="stroke: #000000; stroke-width: 0.8"/>
      </g>
     </g>
     <g id="text_23">
      <text style="font: 7px 'arial'; text-anchor: middle" x="381.749424" y="93.865514" transform="rotate(-0 381.749424 93.865514)">0.4</text>
     </g>
    </g>
    <g id="xtick_11">
     <g id="line2d_36">
      <g>
       <use xlink:href="#m7a9f144369" x="411.221555" y="81.855046" style="stroke: #000000; stroke-width: 0.8"/>
      </g>
     </g>
     <g id="text_24">
      <text style="font: 7px 'arial'; text-anchor: middle" x="411.221555" y="93.865514" transform="rotate(-0 411.221555 93.865514)">0.6</text>
     </g>
    </g>
    <g id="xtick_12">
     <g id="line2d_37">
      <g>
       <use xlink:href="#m7a9f144369" x="440.693687" y="81.855046" style="stroke: #000000; stroke-width: 0.8"/>
      </g>
     </g>
     <g id="text_25">
      <text style="font: 7px 'arial'; text-anchor: middle" x="440.693687" y="93.865514" transform="rotate(-0 440.693687 93.865514)">0.8</text>
     </g>
    </g>
    <g id="text_26">
     <text style="font: 7px 'arial'; text-anchor: middle" x="388.469806" y="104.267233" transform="rotate(-0 388.469806 104.267233)">Abundance</text>
    </g>
   </g>
   <g id="matplotlib.axis_6">
    <g id="ytick_10">
     <g id="line2d_38">
      <g>
       <use xlink:href="#m1a98a1fb95" x="331.590876" y="81.250686" style="stroke: #000000; stroke-width: 0.8"/>
      </g>
     </g>
     <g id="text_27">
      <text style="font: 7px 'arial'; text-anchor: end" x="324.590876" y="83.755921" transform="rotate(-0 324.590876 83.755921)">0.00</text>
     </g>
    </g>
    <g id="ytick_11">
     <g id="line2d_39">
      <g>
       <use xlink:href="#m1a98a1fb95" x="331.590876" y="63.672276" style="stroke: #000000; stroke-width: 0.8"/>
      </g>
     </g>
     <g id="text_28">
      <text style="font: 7px 'arial'; text-anchor: end" x="324.590876" y="66.177511" transform="rotate(-0 324.590876 66.177511)">0.25</text>
     </g>
    </g>
    <g id="ytick_12">
     <g id="line2d_40">
      <g>
       <use xlink:href="#m1a98a1fb95" x="331.590876" y="46.093867" style="stroke: #000000; stroke-width: 0.8"/>
      </g>
     </g>
     <g id="text_29">
      <text style="font: 7px 'arial'; text-anchor: end" x="324.590876" y="48.599101" transform="rotate(-0 324.590876 48.599101)">0.50</text>
     </g>
    </g>
    <g id="ytick_13">
     <g id="line2d_41">
      <g>
       <use xlink:href="#m1a98a1fb95" x="331.590876" y="28.515457" style="stroke: #000000; stroke-width: 0.8"/>
      </g>
     </g>
     <g id="text_30">
      <text style="font: 7px 'arial'; text-anchor: end" x="324.590876" y="31.020692" transform="rotate(-0 324.590876 31.020692)">0.75</text>
     </g>
    </g>
    <g id="ytick_14">
     <g id="line2d_42">
      <g>
       <use xlink:href="#m1a98a1fb95" x="331.590876" y="10.937048" style="stroke: #000000; stroke-width: 0.8"/>
      </g>
     </g>
     <g id="text_31">
      <text style="font: 7px 'arial'; text-anchor: end" x="324.590876" y="13.442282" transform="rotate(-0 324.590876 13.442282)">1.00</text>
     </g>
    </g>
    <g id="text_32">
     <text style="font: 7px 'arial'; text-anchor: middle" x="305.57697" y="44.707523" transform="rotate(-90 305.57697 44.707523)">Fraction recovered</text>
    </g>
   </g>
   <g id="line2d_43">
    <path d="M 336.761688 26.668261 
L 362.666218 16.734613 
L 388.528014 18.472935 
L 414.389809 13.407522 
L 440.177925 13.641418 
" clip-path="url(#pa6374a8aa2)" style="fill: none; stroke: #4878d0; stroke-width: 1.5; stroke-linecap: square"/>
    <g clip-path="url(#pa6374a8aa2)">
     <use xlink:href="#m5c52b7044d" x="336.761688" y="26.668261" style="fill: #4878d0; stroke: #ffffff; stroke-width: 0.75"/>
     <use xlink:href="#m5c52b7044d" x="362.666218" y="16.734613" style="fill: #4878d0; stroke: #ffffff; stroke-width: 0.75"/>
     <use xlink:href="#m5c52b7044d" x="388.528014" y="18.472935" style="fill: #4878d0; stroke: #ffffff; stroke-width: 0.75"/>
     <use xlink:href="#m5c52b7044d" x="414.389809" y="13.407522" style="fill: #4878d0; stroke: #ffffff; stroke-width: 0.75"/>
     <use xlink:href="#m5c52b7044d" x="440.177925" y="13.641418" style="fill: #4878d0; stroke: #ffffff; stroke-width: 0.75"/>
    </g>
   </g>
   <g id="line2d_44">
    <path d="M 336.761688 66.293847 
L 362.666218 55.45807 
L 388.528014 41.681473 
L 414.389809 43.318328 
L 440.177925 32.572013 
" clip-path="url(#pa6374a8aa2)" style="fill: none; stroke: #ee854a; stroke-width: 1.5; stroke-linecap: square"/>
    <g clip-path="url(#pa6374a8aa2)">
     <use xlink:href="#mb8bce8c351" x="336.761688" y="66.293847" style="fill: #ee854a; stroke: #ffffff; stroke-width: 0.75"/>
     <use xlink:href="#mb8bce8c351" x="362.666218" y="55.45807" style="fill: #ee854a; stroke: #ffffff; stroke-width: 0.75"/>
     <use xlink:href="#mb8bce8c351" x="388.528014" y="41.681473" style="fill: #ee854a; stroke: #ffffff; stroke-width: 0.75"/>
     <use xlink:href="#mb8bce8c351" x="414.389809" y="43.318328" style="fill: #ee854a; stroke: #ffffff; stroke-width: 0.75"/>
     <use xlink:href="#mb8bce8c351" x="440.177925" y="32.572013" style="fill: #ee854a; stroke: #ffffff; stroke-width: 0.75"/>
    </g>
   </g>
   <g id="line2d_45">
    <path d="M 336.761688 47.424105 
L 362.666218 30.208639 
L 388.528014 24.949167 
L 414.389809 17.104911 
L 440.177925 24.458901 
" clip-path="url(#pa6374a8aa2)" style="fill: none; stroke: #6acc64; stroke-width: 1.5; stroke-linecap: square"/>
    <g clip-path="url(#pa6374a8aa2)">
     <use xlink:href="#mebc1540469" x="336.761688" y="47.424105" style="fill: #6acc64; stroke: #ffffff; stroke-width: 0.75"/>
     <use xlink:href="#mebc1540469" x="362.666218" y="30.208639" style="fill: #6acc64; stroke: #ffffff; stroke-width: 0.75"/>
     <use xlink:href="#mebc1540469" x="388.528014" y="24.949167" style="fill: #6acc64; stroke: #ffffff; stroke-width: 0.75"/>
     <use xlink:href="#mebc1540469" x="414.389809" y="17.104911" style="fill: #6acc64; stroke: #ffffff; stroke-width: 0.75"/>
     <use xlink:href="#mebc1540469" x="440.177925" y="24.458901" style="fill: #6acc64; stroke: #ffffff; stroke-width: 0.75"/>
    </g>
   </g>
   <g id="line2d_46">
    <path d="M 336.761688 48.452168 
L 362.666218 53.757649 
L 388.528014 51.196678 
L 414.389809 43.691882 
L 440.177925 47.218724 
" clip-path="url(#pa6374a8aa2)" style="fill: none; stroke: #d65f5f; stroke-width: 1.5; stroke-linecap: square"/>
    <g clip-path="url(#pa6374a8aa2)">
     <use xlink:href="#mdae210d9b1" x="336.761688" y="48.452168" style="fill: #d65f5f; stroke: #ffffff; stroke-width: 0.75"/>
     <use xlink:href="#mdae210d9b1" x="362.666218" y="53.757649" style="fill: #d65f5f; stroke: #ffffff; stroke-width: 0.75"/>
     <use xlink:href="#mdae210d9b1" x="388.528014" y="51.196678" style="fill: #d65f5f; stroke: #ffffff; stroke-width: 0.75"/>
     <use xlink:href="#mdae210d9b1" x="414.389809" y="43.691882" style="fill: #d65f5f; stroke: #ffffff; stroke-width: 0.75"/>
     <use xlink:href="#mdae210d9b1" x="440.177925" y="47.218724" style="fill: #d65f5f; stroke: #ffffff; stroke-width: 0.75"/>
    </g>
   </g>
   <g id="line2d_47"/>
   <g id="line2d_48"/>
   <g id="line2d_49"/>
   <g id="line2d_50"/>
   <g id="patch_9">
    <path d="M 331.590876 81.855046 
L 331.590876 7.56 
" style="fill: none; stroke: #000000; stroke-width: 0.8; stroke-linejoin: miter; stroke-linecap: square"/>
   </g>
   <g id="patch_10">
    <path d="M 331.590876 81.855046 
L 445.348736 81.855046 
" style="fill: none; stroke: #000000; stroke-width: 0.8; stroke-linejoin: miter; stroke-linecap: square"/>
   </g>
  </g>
  <g id="legend_1">
   <g id="line2d_51">
    <path d="M 120.657122 8.945781 
L 127.657122 8.945781 
L 134.657122 8.945781 
" style="fill: none; stroke: #4878d0; stroke-width: 1.5; stroke-linecap: square"/>
    <g>
     <use xlink:href="#m5c52b7044d" x="127.657122" y="8.945781" style="fill: #4878d0; stroke: #ffffff; stroke-width: 0.75"/>
    </g>
   </g>
   <g id="text_33">
    <text style="font: 7px 'arial'; text-anchor: start" x="140.257122" y="11.395781" transform="rotate(-0 140.257122 11.395781)">devider</text>
   </g>
   <g id="line2d_52">
    <path d="M 177.213841 8.945781 
L 184.213841 8.945781 
L 191.213841 8.945781 
" style="fill: none; stroke: #ee854a; stroke-width: 1.5; stroke-linecap: square"/>
    <g>
     <use xlink:href="#mb8bce8c351" x="184.213841" y="8.945781" style="fill: #ee854a; stroke: #ffffff; stroke-width: 0.75"/>
    </g>
   </g>
   <g id="text_34">
    <text style="font: 7px 'arial'; text-anchor: start" x="196.813841" y="11.395781" transform="rotate(-0 196.813841 11.395781)">rvhaplo</text>
   </g>
   <g id="line2d_53">
    <path d="M 233.77056 8.945781 
L 240.77056 8.945781 
L 247.77056 8.945781 
" style="fill: none; stroke: #6acc64; stroke-width: 1.5; stroke-linecap: square"/>
    <g>
     <use xlink:href="#mebc1540469" x="240.77056" y="8.945781" style="fill: #6acc64; stroke: #ffffff; stroke-width: 0.75"/>
    </g>
   </g>
   <g id="text_35">
    <text style="font: 7px 'arial'; text-anchor: start" x="253.37056" y="11.395781" transform="rotate(-0 253.37056 11.395781)">cliqueSNV</text>
   </g>
   <g id="line2d_54">
    <path d="M 300.052904 8.945781 
L 307.052904 8.945781 
L 314.052904 8.945781 
" style="fill: none; stroke: #d65f5f; stroke-width: 1.5; stroke-linecap: square"/>
    <g>
     <use xlink:href="#mdae210d9b1" x="307.052904" y="8.945781" style="fill: #d65f5f; stroke: #ffffff; stroke-width: 0.75"/>
    </g>
   </g>
   <g id="text_36">
    <text style="font: 7px 'arial'; text-anchor: start" x="319.652904" y="11.395781" transform="rotate(-0 319.652904 11.395781)">igda</text>
   </g>
  </g>
 </g>
 <defs>
  <clipPath id="p86056bb6a7">
   <rect x="34.691719" y="7.56" width="113.75786" height="74.295046"/>
  </clipPath>
  <clipPath id="ped8d5ff96b">
   <rect x="183.141298" y="7.56" width="113.75786" height="74.295046"/>
  </clipPath>
  <clipPath id="pa6374a8aa2">
   <rect x="331.590876" y="7.56" width="113.75786" height="74.295046"/>
  </clipPath>
 </defs>
</svg>
