<?xml version="1.0" encoding="utf-8" standalone="no"?>
<!DOCTYPE svg PUBLIC "-//W3C//DTD SVG 1.1//EN"
  "http://www.w3.org/Graphics/SVG/1.1/DTD/svg11.dtd">
<svg xmlns:xlink="http://www.w3.org/1999/xlink" width="453.543307pt" height="113.385827pt" viewBox="0 0 453.543307 113.385827" xmlns="http://www.w3.org/2000/svg" version="1.1">
 <metadata>
  <rdf:RDF xmlns:dc="http://purl.org/dc/elements/1.1/" xmlns:cc="http://creativecommons.org/ns#" xmlns:rdf="http://www.w3.org/1999/02/22-rdf-syntax-ns#">
   <cc:Work>
    <dc:type rdf:resource="http://purl.org/dc/dcmitype/StillImage"/>
    <dc:date>2024-10-11T09:44:35.659446</dc:date>
    <dc:format>image/svg+xml</dc:format>
    <dc:creator>
     <cc:Agent>
      <dc:title>Matplotlib v3.8.0, https://matplotlib.org/</dc:title>
     </cc:Agent>
    </dc:creator>
   </cc:Work>
  </rdf:RDF>
 </metadata>
 <defs>
  <style type="text/css">*{stroke-linejoin: round; stroke-linecap: butt}</style>
 </defs>
 <g id="figure_1">
  <g id="patch_1">
   <path d="M 0 113.385827 
L 453.543307 113.385827 
L 453.543307 0 
L 0 0 
z
" style="fill: #ffffff"/>
  </g>
  <g id="axes_1">
   <g id="patch_2">
    <path d="M 34.76 81.865827 
L 148.451245 81.865827 
L 148.451245 7.56 
L 34.76 7.56 
z
" style="fill: #ffffff"/>
   </g>
   <g id="PolyCollection_1">
    <defs>
     <path id="m82a896c9f7" d="M 39.927784 -74.74392 
L 39.927784 -67.244839 
L 65.815121 -90.971619 
L 91.637901 -97.466098 
L 117.460681 -95.074557 
L 143.283462 -98.403766 
L 143.283462 -102.448289 
L 143.283462 -102.448289 
L 117.460681 -98.989472 
L 91.637901 -100.956096 
L 65.815121 -95.678155 
L 39.927784 -74.74392 
z
" style="stroke: #4878d0; stroke-opacity: 0.2"/>
    </defs>
    <g clip-path="url(#pd03f710766)">
     <use xlink:href="#m82a896c9f7" x="0" y="113.385827" style="fill: #4878d0; fill-opacity: 0.2; stroke: #4878d0; stroke-opacity: 0.2"/>
    </g>
   </g>
   <g id="PolyCollection_2">
    <defs>
     <path id="m5fc3c31eff" d="M 39.927784 -43.811722 
L 39.927784 -37.972509 
L 65.815121 -38.287725 
L 91.637901 -43.275972 
L 117.460681 -45.991282 
L 143.283462 -47.544714 
L 143.283462 -53.894054 
L 143.283462 -53.894054 
L 117.460681 -52.042314 
L 91.637901 -48.8233 
L 65.815121 -44.566825 
L 39.927784 -43.811722 
z
" style="stroke: #ee854a; stroke-opacity: 0.2"/>
    </defs>
    <g clip-path="url(#pd03f710766)">
     <use xlink:href="#m5fc3c31eff" x="0" y="113.385827" style="fill: #ee854a; fill-opacity: 0.2; stroke: #ee854a; stroke-opacity: 0.2"/>
    </g>
   </g>
   <g id="PolyCollection_3">
    <defs>
     <path id="m149eaf2274" d="M 39.927784 -39.37779 
L 39.927784 -34.897538 
L 65.815121 -37.028693 
L 91.637901 -55.38073 
L 117.460681 -63.219425 
L 143.283462 -64.628276 
L 143.283462 -71.82163 
L 143.283462 -71.82163 
L 117.460681 -70.464195 
L 91.637901 -61.946551 
L 65.815121 -41.915756 
L 39.927784 -39.37779 
z
" style="stroke: #6acc64; stroke-opacity: 0.2"/>
    </defs>
    <g clip-path="url(#pd03f710766)">
     <use xlink:href="#m149eaf2274" x="0" y="113.385827" style="fill: #6acc64; fill-opacity: 0.2; stroke: #6acc64; stroke-opacity: 0.2"/>
    </g>
   </g>
   <g id="PolyCollection_4">
    <defs>
     <path id="mc1cd96c31d" d="M 39.927784 -66.850928 
L 39.927784 -59.599614 
L 65.815121 -58.398502 
L 91.637901 -55.580291 
L 117.460681 -60.051279 
L 143.283462 -59.563465 
L 143.283462 -66.993642 
L 143.283462 -66.993642 
L 117.460681 -67.360549 
L 91.637901 -62.961749 
L 65.815121 -66.104179 
L 39.927784 -66.850928 
z
" style="stroke: #d65f5f; stroke-opacity: 0.2"/>
    </defs>
    <g clip-path="url(#pd03f710766)">
     <use xlink:href="#mc1cd96c31d" x="0" y="113.385827" style="fill: #d65f5f; fill-opacity: 0.2; stroke: #d65f5f; stroke-opacity: 0.2"/>
    </g>
   </g>
   <g id="matplotlib.axis_1">
    <g id="xtick_1">
     <g id="line2d_1">
      <defs>
       <path id="m0e7b67af62" d="M 0 0 
L 0 3.5 
" style="stroke: #000000; stroke-width: 0.8"/>
      </defs>
      <g>
       <use xlink:href="#m0e7b67af62" x="47.229298" y="81.865827" style="stroke: #000000; stroke-width: 0.8"/>
      </g>
     </g>
     <g id="text_1">
      <text style="font: 7px 'arial'; text-anchor: middle" x="47.229298" y="93.876296" transform="rotate(-0 47.229298 93.876296)">200</text>
     </g>
    </g>
    <g id="xtick_2">
     <g id="line2d_2">
      <g>
       <use xlink:href="#m0e7b67af62" x="74.642016" y="81.865827" style="stroke: #000000; stroke-width: 0.8"/>
      </g>
     </g>
     <g id="text_2">
      <text style="font: 7px 'arial'; text-anchor: middle" x="74.642016" y="93.876296" transform="rotate(-0 74.642016 93.876296)">400</text>
     </g>
    </g>
    <g id="xtick_3">
     <g id="line2d_3">
      <g>
       <use xlink:href="#m0e7b67af62" x="102.054734" y="81.865827" style="stroke: #000000; stroke-width: 0.8"/>
      </g>
     </g>
     <g id="text_3">
      <text style="font: 7px 'arial'; text-anchor: middle" x="102.054734" y="93.876296" transform="rotate(-0 102.054734 93.876296)">600</text>
     </g>
    </g>
    <g id="xtick_4">
     <g id="line2d_4">
      <g>
       <use xlink:href="#m0e7b67af62" x="129.467452" y="81.865827" style="stroke: #000000; stroke-width: 0.8"/>
      </g>
     </g>
     <g id="text_4">
      <text style="font: 7px 'arial'; text-anchor: middle" x="129.467452" y="93.876296" transform="rotate(-0 129.467452 93.876296)">800</text>
     </g>
    </g>
    <g id="text_5">
     <text style="font: 7px 'arial'; text-anchor: middle" x="91.605623" y="104.363327" transform="rotate(-0 91.605623 104.363327)">Coverage</text>
    </g>
   </g>
   <g id="matplotlib.axis_2">
    <g id="ytick_1">
     <g id="line2d_5">
      <defs>
       <path id="m4f36704e5a" d="M 0 0 
L -3.5 0 
" style="stroke: #000000; stroke-width: 0.8"/>
      </defs>
      <g>
       <use xlink:href="#m4f36704e5a" x="34.76" y="70.590016" style="stroke: #000000; stroke-width: 0.8"/>
      </g>
     </g>
     <g id="text_6">
      <text style="font: 7px 'arial'; text-anchor: end" x="27.76" y="73.095251" transform="rotate(-0 27.76 73.095251)">0.2</text>
     </g>
    </g>
    <g id="ytick_2">
     <g id="line2d_6">
      <g>
       <use xlink:href="#m4f36704e5a" x="34.76" y="54.5586" style="stroke: #000000; stroke-width: 0.8"/>
      </g>
     </g>
     <g id="text_7">
      <text style="font: 7px 'arial'; text-anchor: end" x="27.76" y="57.063835" transform="rotate(-0 27.76 57.063835)">0.4</text>
     </g>
    </g>
    <g id="ytick_3">
     <g id="line2d_7">
      <g>
       <use xlink:href="#m4f36704e5a" x="34.76" y="38.527184" style="stroke: #000000; stroke-width: 0.8"/>
      </g>
     </g>
     <g id="text_8">
      <text style="font: 7px 'arial'; text-anchor: end" x="27.76" y="41.032419" transform="rotate(-0 27.76 41.032419)">0.6</text>
     </g>
    </g>
    <g id="ytick_4">
     <g id="line2d_8">
      <g>
       <use xlink:href="#m4f36704e5a" x="34.76" y="22.495768" style="stroke: #000000; stroke-width: 0.8"/>
      </g>
     </g>
     <g id="text_9">
      <text style="font: 7px 'arial'; text-anchor: end" x="27.76" y="25.001003" transform="rotate(-0 27.76 25.001003)">0.8</text>
     </g>
    </g>
    <g id="text_10">
     <text style="font: 7px 'arial'; text-anchor: middle" x="12.556719" y="44.712913" transform="rotate(-90 12.556719 44.712913)">Fraction recovered (spike-in)</text>
    </g>
   </g>
   <g id="line2d_9">
    <path d="M 39.927784 42.391448 
L 65.815121 20.06094 
L 91.637901 14.17473 
L 117.460681 16.353812 
L 143.283462 12.959799 
" clip-path="url(#pd03f710766)" style="fill: none; stroke: #4878d0; stroke-width: 1.5; stroke-linecap: square"/>
    <defs>
     <path id="ma828dc6ff6" d="M 0 3 
C 0.795609 3 1.55874 2.683901 2.12132 2.12132 
C 2.683901 1.55874 3 0.795609 3 0 
C 3 -0.795609 2.683901 -1.55874 2.12132 -2.12132 
C 1.55874 -2.683901 0.795609 -3 0 -3 
C -0.795609 -3 -1.55874 -2.683901 -2.12132 -2.12132 
C -2.683901 -1.55874 -3 -0.795609 -3 0 
C -3 0.795609 -2.683901 1.55874 -2.12132 2.12132 
C -1.55874 2.683901 -0.795609 3 0 3 
z
" style="stroke: #ffffff; stroke-width: 0.75"/>
    </defs>
    <g clip-path="url(#pd03f710766)">
     <use xlink:href="#ma828dc6ff6" x="39.927784" y="42.391448" style="fill: #4878d0; stroke: #ffffff; stroke-width: 0.75"/>
     <use xlink:href="#ma828dc6ff6" x="65.815121" y="20.06094" style="fill: #4878d0; stroke: #ffffff; stroke-width: 0.75"/>
     <use xlink:href="#ma828dc6ff6" x="91.637901" y="14.17473" style="fill: #4878d0; stroke: #ffffff; stroke-width: 0.75"/>
     <use xlink:href="#ma828dc6ff6" x="117.460681" y="16.353812" style="fill: #4878d0; stroke: #ffffff; stroke-width: 0.75"/>
     <use xlink:href="#ma828dc6ff6" x="143.283462" y="12.959799" style="fill: #4878d0; stroke: #ffffff; stroke-width: 0.75"/>
    </g>
   </g>
   <g id="line2d_10">
    <path d="M 39.927784 72.493711 
L 65.815121 71.958552 
L 91.637901 67.336191 
L 117.460681 64.369029 
L 143.283462 62.666443 
" clip-path="url(#pd03f710766)" style="fill: none; stroke: #ee854a; stroke-width: 1.5; stroke-linecap: square"/>
    <defs>
     <path id="m8aaa2c6fc9" d="M 0 3 
C 0.795609 3 1.55874 2.683901 2.12132 2.12132 
C 2.683901 1.55874 3 0.795609 3 0 
C 3 -0.795609 2.683901 -1.55874 2.12132 -2.12132 
C 1.55874 -2.683901 0.795609 -3 0 -3 
C -0.795609 -3 -1.55874 -2.683901 -2.12132 -2.12132 
C -2.683901 -1.55874 -3 -0.795609 -3 0 
C -3 0.795609 -2.683901 1.55874 -2.12132 2.12132 
C -1.55874 2.683901 -0.795609 3 0 3 
z
" style="stroke: #ffffff; stroke-width: 0.75"/>
    </defs>
    <g clip-path="url(#pd03f710766)">
     <use xlink:href="#m8aaa2c6fc9" x="39.927784" y="72.493711" style="fill: #ee854a; stroke: #ffffff; stroke-width: 0.75"/>
     <use xlink:href="#m8aaa2c6fc9" x="65.815121" y="71.958552" style="fill: #ee854a; stroke: #ffffff; stroke-width: 0.75"/>
     <use xlink:href="#m8aaa2c6fc9" x="91.637901" y="67.336191" style="fill: #ee854a; stroke: #ffffff; stroke-width: 0.75"/>
     <use xlink:href="#m8aaa2c6fc9" x="117.460681" y="64.369029" style="fill: #ee854a; stroke: #ffffff; stroke-width: 0.75"/>
     <use xlink:href="#m8aaa2c6fc9" x="143.283462" y="62.666443" style="fill: #ee854a; stroke: #ffffff; stroke-width: 0.75"/>
    </g>
   </g>
   <g id="line2d_11">
    <path d="M 39.927784 76.248163 
L 65.815121 73.913602 
L 91.637901 54.722186 
L 117.460681 46.544017 
L 143.283462 45.160874 
" clip-path="url(#pd03f710766)" style="fill: none; stroke: #6acc64; stroke-width: 1.5; stroke-linecap: square"/>
    <defs>
     <path id="m759da0533b" d="M 0 3 
C 0.795609 3 1.55874 2.683901 2.12132 2.12132 
C 2.683901 1.55874 3 0.795609 3 0 
C 3 -0.795609 2.683901 -1.55874 2.12132 -2.12132 
C 1.55874 -2.683901 0.795609 -3 0 -3 
C -0.795609 -3 -1.55874 -2.683901 -2.12132 -2.12132 
C -2.683901 -1.55874 -3 -0.795609 -3 0 
C -3 0.795609 -2.683901 1.55874 -2.12132 2.12132 
C -1.55874 2.683901 -0.795609 3 0 3 
z
" style="stroke: #ffffff; stroke-width: 0.75"/>
    </defs>
    <g clip-path="url(#pd03f710766)">
     <use xlink:href="#m759da0533b" x="39.927784" y="76.248163" style="fill: #6acc64; stroke: #ffffff; stroke-width: 0.75"/>
     <use xlink:href="#m759da0533b" x="65.815121" y="73.913602" style="fill: #6acc64; stroke: #ffffff; stroke-width: 0.75"/>
     <use xlink:href="#m759da0533b" x="91.637901" y="54.722186" style="fill: #6acc64; stroke: #ffffff; stroke-width: 0.75"/>
     <use xlink:href="#m759da0533b" x="117.460681" y="46.544017" style="fill: #6acc64; stroke: #ffffff; stroke-width: 0.75"/>
     <use xlink:href="#m759da0533b" x="143.283462" y="45.160874" style="fill: #6acc64; stroke: #ffffff; stroke-width: 0.75"/>
    </g>
   </g>
   <g id="line2d_12">
    <path d="M 39.927784 50.160556 
L 65.815121 51.134487 
L 91.637901 54.114807 
L 117.460681 49.679913 
L 143.283462 50.107274 
" clip-path="url(#pd03f710766)" style="fill: none; stroke: #d65f5f; stroke-width: 1.5; stroke-linecap: square"/>
    <defs>
     <path id="m95c956fd7e" d="M 0 3 
C 0.795609 3 1.55874 2.683901 2.12132 2.12132 
C 2.683901 1.55874 3 0.795609 3 0 
C 3 -0.795609 2.683901 -1.55874 2.12132 -2.12132 
C 1.55874 -2.683901 0.795609 -3 0 -3 
C -0.795609 -3 -1.55874 -2.683901 -2.12132 -2.12132 
C -2.683901 -1.55874 -3 -0.795609 -3 0 
C -3 0.795609 -2.683901 1.55874 -2.12132 2.12132 
C -1.55874 2.683901 -0.795609 3 0 3 
z
" style="stroke: #ffffff; stroke-width: 0.75"/>
    </defs>
    <g clip-path="url(#pd03f710766)">
     <use xlink:href="#m95c956fd7e" x="39.927784" y="50.160556" style="fill: #d65f5f; stroke: #ffffff; stroke-width: 0.75"/>
     <use xlink:href="#m95c956fd7e" x="65.815121" y="51.134487" style="fill: #d65f5f; stroke: #ffffff; stroke-width: 0.75"/>
     <use xlink:href="#m95c956fd7e" x="91.637901" y="54.114807" style="fill: #d65f5f; stroke: #ffffff; stroke-width: 0.75"/>
     <use xlink:href="#m95c956fd7e" x="117.460681" y="49.679913" style="fill: #d65f5f; stroke: #ffffff; stroke-width: 0.75"/>
     <use xlink:href="#m95c956fd7e" x="143.283462" y="50.107274" style="fill: #d65f5f; stroke: #ffffff; stroke-width: 0.75"/>
    </g>
   </g>
   <g id="line2d_13"/>
   <g id="line2d_14"/>
   <g id="line2d_15"/>
   <g id="line2d_16"/>
   <g id="patch_3">
    <path d="M 34.76 81.865827 
L 34.76 7.56 
" style="fill: none; stroke: #000000; stroke-width: 0.8; stroke-linejoin: miter; stroke-linecap: square"/>
   </g>
   <g id="patch_4">
    <path d="M 34.76 81.865827 
L 148.451245 81.865827 
" style="fill: none; stroke: #000000; stroke-width: 0.8; stroke-linejoin: miter; stroke-linecap: square"/>
   </g>
  </g>
  <g id="axes_2">
   <g id="patch_5">
    <path d="M 183.211245 81.865827 
L 296.902491 81.865827 
L 296.902491 7.56 
L 183.211245 7.56 
z
" style="fill: #ffffff"/>
   </g>
   <g id="PolyCollection_5">
    <defs>
     <path id="m66ee84b57a" d="M 188.379029 -102.448289 
L 188.379029 -102.422666 
L 209.050165 -91.122119 
L 229.7213 -88.440315 
L 250.392436 -94.371888 
L 271.063571 -85.751471 
L 291.734707 -84.266537 
L 291.734707 -87.345578 
L 291.734707 -87.345578 
L 271.063571 -90.857955 
L 250.392436 -100.188214 
L 229.7213 -98.22565 
L 209.050165 -99.459585 
L 188.379029 -102.448289 
z
" style="stroke: #4878d0; stroke-opacity: 0.2"/>
    </defs>
    <g clip-path="url(#p0ce64e9f0b)">
     <use xlink:href="#m66ee84b57a" x="0" y="113.385827" style="fill: #4878d0; fill-opacity: 0.2; stroke: #4878d0; stroke-opacity: 0.2"/>
    </g>
   </g>
   <g id="PolyCollection_6">
    <defs>
     <path id="m3c9f71fa33" d="M 188.379029 -94.954315 
L 188.379029 -67.663474 
L 209.050165 -55.834265 
L 229.7213 -56.38547 
L 250.392436 -46.908905 
L 271.063571 -34.897538 
L 291.734707 -41.325528 
L 291.734707 -43.813922 
L 291.734707 -43.813922 
L 271.063571 -38.934794 
L 250.392436 -56.686291 
L 229.7213 -71.452953 
L 209.050165 -71.5512 
L 188.379029 -94.954315 
z
" style="stroke: #ee854a; stroke-opacity: 0.2"/>
    </defs>
    <g clip-path="url(#p0ce64e9f0b)">
     <use xlink:href="#m3c9f71fa33" x="0" y="113.385827" style="fill: #ee854a; fill-opacity: 0.2; stroke: #ee854a; stroke-opacity: 0.2"/>
    </g>
   </g>
   <g id="PolyCollection_7">
    <defs>
     <path id="m9d1b791d3c" d="M 188.379029 -102.448289 
L 188.379029 -81.308895 
L 209.050165 -62.551945 
L 229.7213 -48.168525 
L 250.392436 -43.987375 
L 271.063571 -44.157832 
L 291.734707 -52.17488 
L 291.734707 -55.67626 
L 291.734707 -55.67626 
L 271.063571 -49.404601 
L 250.392436 -54.229002 
L 229.7213 -62.023566 
L 209.050165 -78.92645 
L 188.379029 -102.448289 
z
" style="stroke: #6acc64; stroke-opacity: 0.2"/>
    </defs>
    <g clip-path="url(#p0ce64e9f0b)">
     <use xlink:href="#m9d1b791d3c" x="0" y="113.385827" style="fill: #6acc64; fill-opacity: 0.2; stroke: #6acc64; stroke-opacity: 0.2"/>
    </g>
   </g>
   <g id="PolyCollection_8">
    <defs>
     <path id="m3ee48b6637" d="M 188.379029 -100.939185 
L 188.379029 -99.156884 
L 209.050165 -88.002589 
L 229.7213 -73.293764 
L 250.392436 -92.236959 
L 271.063571 -64.43365 
L 291.734707 -40.351018 
L 291.734707 -43.257768 
L 291.734707 -43.257768 
L 271.063571 -70.386982 
L 250.392436 -97.920764 
L 229.7213 -86.403037 
L 209.050165 -97.355845 
L 188.379029 -100.939185 
z
" style="stroke: #d65f5f; stroke-opacity: 0.2"/>
    </defs>
    <g clip-path="url(#p0ce64e9f0b)">
     <use xlink:href="#m3ee48b6637" x="0" y="113.385827" style="fill: #d65f5f; fill-opacity: 0.2; stroke: #d65f5f; stroke-opacity: 0.2"/>
    </g>
   </g>
   <g id="matplotlib.axis_3">
    <g id="xtick_5">
     <g id="line2d_17">
      <g>
       <use xlink:href="#m0e7b67af62" x="198.45556" y="81.865827" style="stroke: #000000; stroke-width: 0.8"/>
      </g>
     </g>
     <g id="text_11">
      <text style="font: 7px 'arial'; text-anchor: middle" x="198.45556" y="93.876296" transform="rotate(-0 198.45556 93.876296)">98.0</text>
     </g>
    </g>
    <g id="xtick_6">
     <g id="line2d_18">
      <g>
       <use xlink:href="#m0e7b67af62" x="224.359239" y="81.865827" style="stroke: #000000; stroke-width: 0.8"/>
      </g>
     </g>
     <g id="text_12">
      <text style="font: 7px 'arial'; text-anchor: middle" x="224.359239" y="93.876296" transform="rotate(-0 224.359239 93.876296)">98.5</text>
     </g>
    </g>
    <g id="xtick_7">
     <g id="line2d_19">
      <g>
       <use xlink:href="#m0e7b67af62" x="250.262918" y="81.865827" style="stroke: #000000; stroke-width: 0.8"/>
      </g>
     </g>
     <g id="text_13">
      <text style="font: 7px 'arial'; text-anchor: middle" x="250.262918" y="93.876296" transform="rotate(-0 250.262918 93.876296)">99.0</text>
     </g>
    </g>
    <g id="xtick_8">
     <g id="line2d_20">
      <g>
       <use xlink:href="#m0e7b67af62" x="276.166596" y="81.865827" style="stroke: #000000; stroke-width: 0.8"/>
      </g>
     </g>
     <g id="text_14">
      <text style="font: 7px 'arial'; text-anchor: middle" x="276.166596" y="93.876296" transform="rotate(-0 276.166596 93.876296)">99.5</text>
     </g>
    </g>
    <g id="text_15">
     <text style="font: 7px 'arial'; text-anchor: middle" x="240.056868" y="104.363327" transform="rotate(-0 240.056868 104.363327)">% identity to ref.</text>
    </g>
   </g>
   <g id="matplotlib.axis_4">
    <g id="ytick_5">
     <g id="line2d_21">
      <g>
       <use xlink:href="#m4f36704e5a" x="183.211245" y="66.428448" style="stroke: #000000; stroke-width: 0.8"/>
      </g>
     </g>
     <g id="text_16">
      <text style="font: 7px 'arial'; text-anchor: end" x="176.211245" y="68.933683" transform="rotate(-0 176.211245 68.933683)">0.25</text>
     </g>
    </g>
    <g id="ytick_6">
     <g id="line2d_22">
      <g>
       <use xlink:href="#m4f36704e5a" x="183.211245" y="47.931478" style="stroke: #000000; stroke-width: 0.8"/>
      </g>
     </g>
     <g id="text_17">
      <text style="font: 7px 'arial'; text-anchor: end" x="176.211245" y="50.436712" transform="rotate(-0 176.211245 50.436712)">0.50</text>
     </g>
    </g>
    <g id="ytick_7">
     <g id="line2d_23">
      <g>
       <use xlink:href="#m4f36704e5a" x="183.211245" y="29.434508" style="stroke: #000000; stroke-width: 0.8"/>
      </g>
     </g>
     <g id="text_18">
      <text style="font: 7px 'arial'; text-anchor: end" x="176.211245" y="31.939742" transform="rotate(-0 176.211245 31.939742)">0.75</text>
     </g>
    </g>
    <g id="ytick_8">
     <g id="line2d_24">
      <g>
       <use xlink:href="#m4f36704e5a" x="183.211245" y="10.937538" style="stroke: #000000; stroke-width: 0.8"/>
      </g>
     </g>
     <g id="text_19">
      <text style="font: 7px 'arial'; text-anchor: end" x="176.211245" y="13.442772" transform="rotate(-0 176.211245 13.442772)">1.00</text>
     </g>
    </g>
    <g id="text_20">
     <text style="font: 7px 'arial'; text-anchor: middle" x="157.115308" y="44.712913" transform="rotate(-90 157.115308 44.712913)">Fraction recovered (spike-in)</text>
    </g>
   </g>
   <g id="line2d_25">
    <path d="M 188.379029 10.950349 
L 209.050165 18.094975 
L 229.7213 20.052845 
L 250.392436 16.105776 
L 271.063571 25.081114 
L 291.734707 27.579769 
" clip-path="url(#p0ce64e9f0b)" style="fill: none; stroke: #4878d0; stroke-width: 1.5; stroke-linecap: square"/>
    <g clip-path="url(#p0ce64e9f0b)">
     <use xlink:href="#ma828dc6ff6" x="188.379029" y="10.950349" style="fill: #4878d0; stroke: #ffffff; stroke-width: 0.75"/>
     <use xlink:href="#ma828dc6ff6" x="209.050165" y="18.094975" style="fill: #4878d0; stroke: #ffffff; stroke-width: 0.75"/>
     <use xlink:href="#ma828dc6ff6" x="229.7213" y="20.052845" style="fill: #4878d0; stroke: #ffffff; stroke-width: 0.75"/>
     <use xlink:href="#ma828dc6ff6" x="250.392436" y="16.105776" style="fill: #4878d0; stroke: #ffffff; stroke-width: 0.75"/>
     <use xlink:href="#ma828dc6ff6" x="271.063571" y="25.081114" style="fill: #4878d0; stroke: #ffffff; stroke-width: 0.75"/>
     <use xlink:href="#ma828dc6ff6" x="291.734707" y="27.579769" style="fill: #4878d0; stroke: #ffffff; stroke-width: 0.75"/>
    </g>
   </g>
   <g id="line2d_26">
    <path d="M 188.379029 32.076932 
L 209.050165 49.693094 
L 229.7213 49.466615 
L 250.392436 61.588229 
L 271.063571 76.469661 
L 291.734707 70.816102 
" clip-path="url(#p0ce64e9f0b)" style="fill: none; stroke: #ee854a; stroke-width: 1.5; stroke-linecap: square"/>
    <g clip-path="url(#p0ce64e9f0b)">
     <use xlink:href="#m8aaa2c6fc9" x="188.379029" y="32.076932" style="fill: #ee854a; stroke: #ffffff; stroke-width: 0.75"/>
     <use xlink:href="#m8aaa2c6fc9" x="209.050165" y="49.693094" style="fill: #ee854a; stroke: #ffffff; stroke-width: 0.75"/>
     <use xlink:href="#m8aaa2c6fc9" x="229.7213" y="49.466615" style="fill: #ee854a; stroke: #ffffff; stroke-width: 0.75"/>
     <use xlink:href="#m8aaa2c6fc9" x="250.392436" y="61.588229" style="fill: #ee854a; stroke: #ffffff; stroke-width: 0.75"/>
     <use xlink:href="#m8aaa2c6fc9" x="271.063571" y="76.469661" style="fill: #ee854a; stroke: #ffffff; stroke-width: 0.75"/>
     <use xlink:href="#m8aaa2c6fc9" x="291.734707" y="70.816102" style="fill: #ee854a; stroke: #ffffff; stroke-width: 0.75"/>
    </g>
   </g>
   <g id="line2d_27">
    <path d="M 188.379029 21.507235 
L 209.050165 42.646629 
L 229.7213 58.289781 
L 250.392436 64.277638 
L 271.063571 66.60461 
L 291.734707 59.460257 
" clip-path="url(#p0ce64e9f0b)" style="fill: none; stroke: #6acc64; stroke-width: 1.5; stroke-linecap: square"/>
    <g clip-path="url(#p0ce64e9f0b)">
     <use xlink:href="#m759da0533b" x="188.379029" y="21.507235" style="fill: #6acc64; stroke: #ffffff; stroke-width: 0.75"/>
     <use xlink:href="#m759da0533b" x="209.050165" y="42.646629" style="fill: #6acc64; stroke: #ffffff; stroke-width: 0.75"/>
     <use xlink:href="#m759da0533b" x="229.7213" y="58.289781" style="fill: #6acc64; stroke: #ffffff; stroke-width: 0.75"/>
     <use xlink:href="#m759da0533b" x="250.392436" y="64.277638" style="fill: #6acc64; stroke: #ffffff; stroke-width: 0.75"/>
     <use xlink:href="#m759da0533b" x="271.063571" y="66.60461" style="fill: #6acc64; stroke: #ffffff; stroke-width: 0.75"/>
     <use xlink:href="#m759da0533b" x="291.734707" y="59.460257" style="fill: #6acc64; stroke: #ffffff; stroke-width: 0.75"/>
    </g>
   </g>
   <g id="line2d_28">
    <path d="M 188.379029 13.337792 
L 209.050165 20.70661 
L 229.7213 33.537426 
L 250.392436 18.306965 
L 271.063571 45.975511 
L 291.734707 71.581434 
" clip-path="url(#p0ce64e9f0b)" style="fill: none; stroke: #d65f5f; stroke-width: 1.5; stroke-linecap: square"/>
    <g clip-path="url(#p0ce64e9f0b)">
     <use xlink:href="#m95c956fd7e" x="188.379029" y="13.337792" style="fill: #d65f5f; stroke: #ffffff; stroke-width: 0.75"/>
     <use xlink:href="#m95c956fd7e" x="209.050165" y="20.70661" style="fill: #d65f5f; stroke: #ffffff; stroke-width: 0.75"/>
     <use xlink:href="#m95c956fd7e" x="229.7213" y="33.537426" style="fill: #d65f5f; stroke: #ffffff; stroke-width: 0.75"/>
     <use xlink:href="#m95c956fd7e" x="250.392436" y="18.306965" style="fill: #d65f5f; stroke: #ffffff; stroke-width: 0.75"/>
     <use xlink:href="#m95c956fd7e" x="271.063571" y="45.975511" style="fill: #d65f5f; stroke: #ffffff; stroke-width: 0.75"/>
     <use xlink:href="#m95c956fd7e" x="291.734707" y="71.581434" style="fill: #d65f5f; stroke: #ffffff; stroke-width: 0.75"/>
    </g>
   </g>
   <g id="line2d_29"/>
   <g id="line2d_30"/>
   <g id="line2d_31"/>
   <g id="line2d_32"/>
   <g id="patch_6">
    <path d="M 183.211245 81.865827 
L 183.211245 7.56 
" style="fill: none; stroke: #000000; stroke-width: 0.8; stroke-linejoin: miter; stroke-linecap: square"/>
   </g>
   <g id="patch_7">
    <path d="M 183.211245 81.865827 
L 296.902491 81.865827 
" style="fill: none; stroke: #000000; stroke-width: 0.8; stroke-linejoin: miter; stroke-linecap: square"/>
   </g>
  </g>
  <g id="axes_3">
   <g id="patch_8">
    <path d="M 331.662491 81.865827 
L 445.353736 81.865827 
L 445.353736 7.56 
L 331.662491 7.56 
z
" style="fill: #ffffff"/>
   </g>
   <g id="PolyCollection_9">
    <defs>
     <path id="m96f9af42a8" d="M 336.830275 -89.791431 
L 336.830275 -87.448625 
L 362.719636 -95.881047 
L 388.566287 -97.405408 
L 414.412938 -102.448289 
L 440.185952 -102.202402 
L 440.185952 -102.448289 
L 440.185952 -102.448289 
L 414.412938 -102.448289 
L 388.566287 -100.384862 
L 362.719636 -99.086879 
L 336.830275 -89.791431 
z
" style="stroke: #4878d0; stroke-opacity: 0.2"/>
    </defs>
    <g clip-path="url(#p5150280fe7)">
     <use xlink:href="#m96f9af42a8" x="0" y="113.385827" style="fill: #4878d0; fill-opacity: 0.2; stroke: #4878d0; stroke-opacity: 0.2"/>
    </g>
   </g>
   <g id="PolyCollection_10">
    <defs>
     <path id="m745317e8e2" d="M 336.830275 -48.192014 
L 336.830275 -45.771782 
L 362.719636 -52.032197 
L 388.566287 -63.680304 
L 414.412938 -49.705408 
L 440.185952 -59.172079 
L 440.185952 -102.448289 
L 440.185952 -102.448289 
L 414.412938 -102.448289 
L 388.566287 -78.847618 
L 362.719636 -61.285957 
L 336.830275 -48.192014 
z
" style="stroke: #ee854a; stroke-opacity: 0.2"/>
    </defs>
    <g clip-path="url(#p5150280fe7)">
     <use xlink:href="#m745317e8e2" x="0" y="113.385827" style="fill: #ee854a; fill-opacity: 0.2; stroke: #ee854a; stroke-opacity: 0.2"/>
    </g>
   </g>
   <g id="PolyCollection_11">
    <defs>
     <path id="m138ea183d7" d="M 336.830275 -55.444704 
L 336.830275 -52.657602 
L 362.719636 -67.753028 
L 388.566287 -63.538594 
L 414.412938 -102.448289 
L 440.185952 -75.400658 
L 440.185952 -102.448289 
L 440.185952 -102.448289 
L 414.412938 -102.448289 
L 388.566287 -78.376015 
L 362.719636 -77.109291 
L 336.830275 -55.444704 
z
" style="stroke: #6acc64; stroke-opacity: 0.2"/>
    </defs>
    <g clip-path="url(#p5150280fe7)">
     <use xlink:href="#m138ea183d7" x="0" y="113.385827" style="fill: #6acc64; fill-opacity: 0.2; stroke: #6acc64; stroke-opacity: 0.2"/>
    </g>
   </g>
   <g id="PolyCollection_12">
    <defs>
     <path id="mbdb0b3db04" d="M 336.830275 -65.129526 
L 336.830275 -62.036103 
L 362.719636 -54.126397 
L 388.566287 -52.441182 
L 414.412938 -74.823012 
L 440.185952 -34.897538 
L 440.185952 -97.425158 
L 440.185952 -97.425158 
L 414.412938 -102.118646 
L 388.566287 -71.558182 
L 362.719636 -64.100294 
L 336.830275 -65.129526 
z
" style="stroke: #d65f5f; stroke-opacity: 0.2"/>
    </defs>
    <g clip-path="url(#p5150280fe7)">
     <use xlink:href="#mbdb0b3db04" x="0" y="113.385827" style="fill: #d65f5f; fill-opacity: 0.2; stroke: #d65f5f; stroke-opacity: 0.2"/>
    </g>
   </g>
   <g id="matplotlib.axis_5">
    <g id="xtick_9">
     <g id="line2d_33">
      <g>
       <use xlink:href="#m0e7b67af62" x="352.336793" y="81.865827" style="stroke: #000000; stroke-width: 0.8"/>
      </g>
     </g>
     <g id="text_21">
      <text style="font: 7px 'arial'; text-anchor: middle" x="352.336793" y="93.876296" transform="rotate(-0 352.336793 93.876296)">0.2</text>
     </g>
    </g>
    <g id="xtick_10">
     <g id="line2d_34">
      <g>
       <use xlink:href="#m0e7b67af62" x="381.791666" y="81.865827" style="stroke: #000000; stroke-width: 0.8"/>
      </g>
     </g>
     <g id="text_22">
      <text style="font: 7px 'arial'; text-anchor: middle" x="381.791666" y="93.876296" transform="rotate(-0 381.791666 93.876296)">0.4</text>
     </g>
    </g>
    <g id="xtick_11">
     <g id="line2d_35">
      <g>
       <use xlink:href="#m0e7b67af62" x="411.246539" y="81.865827" style="stroke: #000000; stroke-width: 0.8"/>
      </g>
     </g>
     <g id="text_23">
      <text style="font: 7px 'arial'; text-anchor: middle" x="411.246539" y="93.876296" transform="rotate(-0 411.246539 93.876296)">0.6</text>
     </g>
    </g>
    <g id="xtick_12">
     <g id="line2d_36">
      <g>
       <use xlink:href="#m0e7b67af62" x="440.701413" y="81.865827" style="stroke: #000000; stroke-width: 0.8"/>
      </g>
     </g>
     <g id="text_24">
      <text style="font: 7px 'arial'; text-anchor: middle" x="440.701413" y="93.876296" transform="rotate(-0 440.701413 93.876296)">0.8</text>
     </g>
    </g>
    <g id="text_25">
     <text style="font: 7px 'arial'; text-anchor: middle" x="388.508114" y="104.278014" transform="rotate(-0 388.508114 104.278014)">Abundance</text>
    </g>
   </g>
   <g id="matplotlib.axis_6">
    <g id="ytick_9">
     <g id="line2d_37">
      <g>
       <use xlink:href="#m4f36704e5a" x="331.662491" y="81.26138" style="stroke: #000000; stroke-width: 0.8"/>
      </g>
     </g>
     <g id="text_26">
      <text style="font: 7px 'arial'; text-anchor: end" x="324.662491" y="83.766614" transform="rotate(-0 324.662491 83.766614)">0.00</text>
     </g>
    </g>
    <g id="ytick_10">
     <g id="line2d_38">
      <g>
       <use xlink:href="#m4f36704e5a" x="331.662491" y="63.680419" style="stroke: #000000; stroke-width: 0.8"/>
      </g>
     </g>
     <g id="text_27">
      <text style="font: 7px 'arial'; text-anchor: end" x="324.662491" y="66.185654" transform="rotate(-0 324.662491 66.185654)">0.25</text>
     </g>
    </g>
    <g id="ytick_11">
     <g id="line2d_39">
      <g>
       <use xlink:href="#m4f36704e5a" x="331.662491" y="46.099459" style="stroke: #000000; stroke-width: 0.8"/>
      </g>
     </g>
     <g id="text_28">
      <text style="font: 7px 'arial'; text-anchor: end" x="324.662491" y="48.604693" transform="rotate(-0 324.662491 48.604693)">0.50</text>
     </g>
    </g>
    <g id="ytick_12">
     <g id="line2d_40">
      <g>
       <use xlink:href="#m4f36704e5a" x="331.662491" y="28.518498" style="stroke: #000000; stroke-width: 0.8"/>
      </g>
     </g>
     <g id="text_29">
      <text style="font: 7px 'arial'; text-anchor: end" x="324.662491" y="31.023732" transform="rotate(-0 324.662491 31.023732)">0.75</text>
     </g>
    </g>
    <g id="ytick_13">
     <g id="line2d_41">
      <g>
       <use xlink:href="#m4f36704e5a" x="331.662491" y="10.937538" style="stroke: #000000; stroke-width: 0.8"/>
      </g>
     </g>
     <g id="text_30">
      <text style="font: 7px 'arial'; text-anchor: end" x="324.662491" y="13.442772" transform="rotate(-0 324.662491 13.442772)">1.00</text>
     </g>
    </g>
    <g id="text_31">
     <text style="font: 7px 'arial'; text-anchor: middle" x="305.566553" y="44.712913" transform="rotate(-90 305.566553 44.712913)">Fraction recovered (spike-in)</text>
    </g>
   </g>
   <g id="line2d_42">
    <path d="M 336.830275 24.765799 
L 362.719636 15.901864 
L 388.566287 14.490692 
L 414.412938 10.937538 
L 440.185952 11.060481 
" clip-path="url(#p5150280fe7)" style="fill: none; stroke: #4878d0; stroke-width: 1.5; stroke-linecap: square"/>
    <g clip-path="url(#p5150280fe7)">
     <use xlink:href="#ma828dc6ff6" x="336.830275" y="24.765799" style="fill: #4878d0; stroke: #ffffff; stroke-width: 0.75"/>
     <use xlink:href="#ma828dc6ff6" x="362.719636" y="15.901864" style="fill: #4878d0; stroke: #ffffff; stroke-width: 0.75"/>
     <use xlink:href="#ma828dc6ff6" x="388.566287" y="14.490692" style="fill: #4878d0; stroke: #ffffff; stroke-width: 0.75"/>
     <use xlink:href="#ma828dc6ff6" x="414.412938" y="10.937538" style="fill: #4878d0; stroke: #ffffff; stroke-width: 0.75"/>
     <use xlink:href="#ma828dc6ff6" x="440.185952" y="11.060481" style="fill: #4878d0; stroke: #ffffff; stroke-width: 0.75"/>
    </g>
   </g>
   <g id="line2d_43">
    <path d="M 336.830275 66.403929 
L 362.719636 56.726749 
L 388.566287 42.121866 
L 414.412938 37.308978 
L 440.185952 32.575643 
" clip-path="url(#p5150280fe7)" style="fill: none; stroke: #ee854a; stroke-width: 1.5; stroke-linecap: square"/>
    <g clip-path="url(#p5150280fe7)">
     <use xlink:href="#m8aaa2c6fc9" x="336.830275" y="66.403929" style="fill: #ee854a; stroke: #ffffff; stroke-width: 0.75"/>
     <use xlink:href="#m8aaa2c6fc9" x="362.719636" y="56.726749" style="fill: #ee854a; stroke: #ffffff; stroke-width: 0.75"/>
     <use xlink:href="#m8aaa2c6fc9" x="388.566287" y="42.121866" style="fill: #ee854a; stroke: #ffffff; stroke-width: 0.75"/>
     <use xlink:href="#m8aaa2c6fc9" x="414.412938" y="37.308978" style="fill: #ee854a; stroke: #ffffff; stroke-width: 0.75"/>
     <use xlink:href="#m8aaa2c6fc9" x="440.185952" y="32.575643" style="fill: #ee854a; stroke: #ffffff; stroke-width: 0.75"/>
    </g>
   </g>
   <g id="line2d_44">
    <path d="M 336.830275 59.334674 
L 362.719636 40.954667 
L 388.566287 42.428522 
L 414.412938 10.937538 
L 440.185952 24.461353 
" clip-path="url(#p5150280fe7)" style="fill: none; stroke: #6acc64; stroke-width: 1.5; stroke-linecap: square"/>
    <g clip-path="url(#p5150280fe7)">
     <use xlink:href="#m759da0533b" x="336.830275" y="59.334674" style="fill: #6acc64; stroke: #ffffff; stroke-width: 0.75"/>
     <use xlink:href="#m759da0533b" x="362.719636" y="40.954667" style="fill: #6acc64; stroke: #ffffff; stroke-width: 0.75"/>
     <use xlink:href="#m759da0533b" x="388.566287" y="42.428522" style="fill: #6acc64; stroke: #ffffff; stroke-width: 0.75"/>
     <use xlink:href="#m759da0533b" x="414.412938" y="10.937538" style="fill: #6acc64; stroke: #ffffff; stroke-width: 0.75"/>
     <use xlink:href="#m759da0533b" x="440.185952" y="24.461353" style="fill: #6acc64; stroke: #ffffff; stroke-width: 0.75"/>
    </g>
   </g>
   <g id="line2d_45">
    <path d="M 336.830275 49.803012 
L 362.719636 54.272481 
L 388.566287 51.386145 
L 414.412938 24.914997 
L 440.185952 47.224479 
" clip-path="url(#p5150280fe7)" style="fill: none; stroke: #d65f5f; stroke-width: 1.5; stroke-linecap: square"/>
    <g clip-path="url(#p5150280fe7)">
     <use xlink:href="#m95c956fd7e" x="336.830275" y="49.803012" style="fill: #d65f5f; stroke: #ffffff; stroke-width: 0.75"/>
     <use xlink:href="#m95c956fd7e" x="362.719636" y="54.272481" style="fill: #d65f5f; stroke: #ffffff; stroke-width: 0.75"/>
     <use xlink:href="#m95c956fd7e" x="388.566287" y="51.386145" style="fill: #d65f5f; stroke: #ffffff; stroke-width: 0.75"/>
     <use xlink:href="#m95c956fd7e" x="414.412938" y="24.914997" style="fill: #d65f5f; stroke: #ffffff; stroke-width: 0.75"/>
     <use xlink:href="#m95c956fd7e" x="440.185952" y="47.224479" style="fill: #d65f5f; stroke: #ffffff; stroke-width: 0.75"/>
    </g>
   </g>
   <g id="line2d_46"/>
   <g id="line2d_47"/>
   <g id="line2d_48"/>
   <g id="line2d_49"/>
   <g id="patch_9">
    <path d="M 331.662491 81.865827 
L 331.662491 7.56 
" style="fill: none; stroke: #000000; stroke-width: 0.8; stroke-linejoin: miter; stroke-linecap: square"/>
   </g>
   <g id="patch_10">
    <path d="M 331.662491 81.865827 
L 445.353736 81.865827 
" style="fill: none; stroke: #000000; stroke-width: 0.8; stroke-linejoin: miter; stroke-linecap: square"/>
   </g>
  </g>
  <g id="legend_1">
   <g id="line2d_50">
    <path d="M 120.657122 8.945781 
L 127.657122 8.945781 
L 134.657122 8.945781 
" style="fill: none; stroke: #4878d0; stroke-width: 1.5; stroke-linecap: square"/>
    <g>
     <use xlink:href="#ma828dc6ff6" x="127.657122" y="8.945781" style="fill: #4878d0; stroke: #ffffff; stroke-width: 0.75"/>
    </g>
   </g>
   <g id="text_32">
    <text style="font: 7px 'arial'; text-anchor: start" x="140.257122" y="11.395781" transform="rotate(-0 140.257122 11.395781)">devider</text>
   </g>
   <g id="line2d_51">
    <path d="M 177.213841 8.945781 
L 184.213841 8.945781 
L 191.213841 8.945781 
" style="fill: none; stroke: #ee854a; stroke-width: 1.5; stroke-linecap: square"/>
    <g>
     <use xlink:href="#m8aaa2c6fc9" x="184.213841" y="8.945781" style="fill: #ee854a; stroke: #ffffff; stroke-width: 0.75"/>
    </g>
   </g>
   <g id="text_33">
    <text style="font: 7px 'arial'; text-anchor: start" x="196.813841" y="11.395781" transform="rotate(-0 196.813841 11.395781)">rvhaplo</text>
   </g>
   <g id="line2d_52">
    <path d="M 233.77056 8.945781 
L 240.77056 8.945781 
L 247.77056 8.945781 
" style="fill: none; stroke: #6acc64; stroke-width: 1.5; stroke-linecap: square"/>
    <g>
     <use xlink:href="#m759da0533b" x="240.77056" y="8.945781" style="fill: #6acc64; stroke: #ffffff; stroke-width: 0.75"/>
    </g>
   </g>
   <g id="text_34">
    <text style="font: 7px 'arial'; text-anchor: start" x="253.37056" y="11.395781" transform="rotate(-0 253.37056 11.395781)">cliqueSNV</text>
   </g>
   <g id="line2d_53">
    <path d="M 300.052904 8.945781 
L 307.052904 8.945781 
L 314.052904 8.945781 
" style="fill: none; stroke: #d65f5f; stroke-width: 1.5; stroke-linecap: square"/>
    <g>
     <use xlink:href="#m95c956fd7e" x="307.052904" y="8.945781" style="fill: #d65f5f; stroke: #ffffff; stroke-width: 0.75"/>
    </g>
   </g>
   <g id="text_35">
    <text style="font: 7px 'arial'; text-anchor: start" x="319.652904" y="11.395781" transform="rotate(-0 319.652904 11.395781)">igda</text>
   </g>
  </g>
 </g>
 <defs>
  <clipPath id="pd03f710766">
   <rect x="34.76" y="7.56" width="113.691245" height="74.305827"/>
  </clipPath>
  <clipPath id="p0ce64e9f0b">
   <rect x="183.211245" y="7.56" width="113.691245" height="74.305827"/>
  </clipPath>
  <clipPath id="p5150280fe7">
   <rect x="331.662491" y="7.56" width="113.691245" height="74.305827"/>
  </clipPath>
 </defs>
</svg>
