<?xml version="1.0" encoding="utf-8" standalone="no"?>
<!DOCTYPE svg PUBLIC "-//W3C//DTD SVG 1.1//EN"
  "http://www.w3.org/Graphics/SVG/1.1/DTD/svg11.dtd">
<svg xmlns:xlink="http://www.w3.org/1999/xlink" width="453.543307pt" height="113.385827pt" viewBox="0 0 453.543307 113.385827" xmlns="http://www.w3.org/2000/svg" version="1.1">
 <metadata>
  <rdf:RDF xmlns:dc="http://purl.org/dc/elements/1.1/" xmlns:cc="http://creativecommons.org/ns#" xmlns:rdf="http://www.w3.org/1999/02/22-rdf-syntax-ns#">
   <cc:Work>
    <dc:type rdf:resource="http://purl.org/dc/dcmitype/StillImage"/>
    <dc:date>2024-09-23T19:45:27.993203</dc:date>
    <dc:format>image/svg+xml</dc:format>
    <dc:creator>
     <cc:Agent>
      <dc:title>Matplotlib v3.8.0, https://matplotlib.org/</dc:title>
     </cc:Agent>
    </dc:creator>
   </cc:Work>
  </rdf:RDF>
 </metadata>
 <defs>
  <style type="text/css">*{stroke-linejoin: round; stroke-linecap: butt}</style>
 </defs>
 <g id="figure_1">
  <g id="patch_1">
   <path d="M 0 113.385827 
L 453.543307 113.385827 
L 453.543307 0 
L 0 0 
z
" style="fill: #ffffff"/>
  </g>
  <g id="axes_1">
   <g id="patch_2">
    <path d="M 34.76 81.865827 
L 148.451245 81.865827 
L 148.451245 7.56 
L 34.76 7.56 
z
" style="fill: #ffffff"/>
   </g>
   <g id="PolyCollection_1">
    <defs>
     <path id="mc4de17e7a0" d="M 39.927784 -74.341204 
L 39.927784 -67.523254 
L 65.815121 -91.300451 
L 91.637901 -97.943725 
L 117.460681 -95.808793 
L 143.283462 -98.722553 
L 143.283462 -102.448289 
L 143.283462 -102.448289 
L 117.460681 -98.522926 
L 91.637901 -100.778965 
L 65.815121 -95.561204 
L 39.927784 -74.341204 
z
" style="stroke: #4878d0; stroke-opacity: 0.2"/>
    </defs>
    <g clip-path="url(#pabbb450ee4)">
     <use xlink:href="#mc4de17e7a0" x="0" y="113.385827" style="fill: #4878d0; fill-opacity: 0.2; stroke: #4878d0; stroke-opacity: 0.2"/>
    </g>
   </g>
   <g id="PolyCollection_2">
    <defs>
     <path id="mc439de8435" d="M 39.927784 -43.18476 
L 39.927784 -38.021987 
L 65.815121 -38.168721 
L 91.637901 -43.1198 
L 117.460681 -46.267373 
L 143.283462 -47.399122 
L 143.283462 -53.610109 
L 143.283462 -53.610109 
L 117.460681 -51.311054 
L 91.637901 -48.479633 
L 65.815121 -44.116402 
L 39.927784 -43.18476 
z
" style="stroke: #ee854a; stroke-opacity: 0.2"/>
    </defs>
    <g clip-path="url(#pabbb450ee4)">
     <use xlink:href="#mc439de8435" x="0" y="113.385827" style="fill: #ee854a; fill-opacity: 0.2; stroke: #ee854a; stroke-opacity: 0.2"/>
    </g>
   </g>
   <g id="PolyCollection_3">
    <defs>
     <path id="ma939a22dd1" d="M 39.927784 -38.743784 
L 39.927784 -34.897538 
L 65.815121 -36.6099 
L 91.637901 -55.664323 
L 117.460681 -64.063959 
L 143.283462 -64.842804 
L 143.283462 -71.441108 
L 143.283462 -71.441108 
L 117.460681 -69.432844 
L 91.637901 -61.353021 
L 65.815121 -41.735689 
L 39.927784 -38.743784 
z
" style="stroke: #6acc64; stroke-opacity: 0.2"/>
    </defs>
    <g clip-path="url(#pabbb450ee4)">
     <use xlink:href="#ma939a22dd1" x="0" y="113.385827" style="fill: #6acc64; fill-opacity: 0.2; stroke: #6acc64; stroke-opacity: 0.2"/>
    </g>
   </g>
   <g id="PolyCollection_4">
    <defs>
     <path id="m5fe289f5f0" d="M 39.927784 -66.63808 
L 39.927784 -59.571199 
L 65.815121 -58.120065 
L 91.637901 -55.721601 
L 117.460681 -60.566408 
L 143.283462 -59.658408 
L 143.283462 -66.658237 
L 143.283462 -66.658237 
L 117.460681 -66.611393 
L 91.637901 -62.519646 
L 65.815121 -66.12669 
L 39.927784 -66.63808 
z
" style="stroke: #d65f5f; stroke-opacity: 0.2"/>
    </defs>
    <g clip-path="url(#pabbb450ee4)">
     <use xlink:href="#m5fe289f5f0" x="0" y="113.385827" style="fill: #d65f5f; fill-opacity: 0.2; stroke: #d65f5f; stroke-opacity: 0.2"/>
    </g>
   </g>
   <g id="matplotlib.axis_1">
    <g id="xtick_1">
     <g id="line2d_1">
      <defs>
       <path id="m4160ac6e9f" d="M 0 0 
L 0 3.5 
" style="stroke: #000000; stroke-width: 0.8"/>
      </defs>
      <g>
       <use xlink:href="#m4160ac6e9f" x="47.229298" y="81.865827" style="stroke: #000000; stroke-width: 0.8"/>
      </g>
     </g>
     <g id="text_1">
      <text style="font: 7px 'arial'; text-anchor: middle" x="47.229298" y="93.876296" transform="rotate(-0 47.229298 93.876296)">200</text>
     </g>
    </g>
    <g id="xtick_2">
     <g id="line2d_2">
      <g>
       <use xlink:href="#m4160ac6e9f" x="74.642016" y="81.865827" style="stroke: #000000; stroke-width: 0.8"/>
      </g>
     </g>
     <g id="text_2">
      <text style="font: 7px 'arial'; text-anchor: middle" x="74.642016" y="93.876296" transform="rotate(-0 74.642016 93.876296)">400</text>
     </g>
    </g>
    <g id="xtick_3">
     <g id="line2d_3">
      <g>
       <use xlink:href="#m4160ac6e9f" x="102.054734" y="81.865827" style="stroke: #000000; stroke-width: 0.8"/>
      </g>
     </g>
     <g id="text_3">
      <text style="font: 7px 'arial'; text-anchor: middle" x="102.054734" y="93.876296" transform="rotate(-0 102.054734 93.876296)">600</text>
     </g>
    </g>
    <g id="xtick_4">
     <g id="line2d_4">
      <g>
       <use xlink:href="#m4160ac6e9f" x="129.467452" y="81.865827" style="stroke: #000000; stroke-width: 0.8"/>
      </g>
     </g>
     <g id="text_4">
      <text style="font: 7px 'arial'; text-anchor: middle" x="129.467452" y="93.876296" transform="rotate(-0 129.467452 93.876296)">800</text>
     </g>
    </g>
    <g id="text_5">
     <text style="font: 7px 'arial'; text-anchor: middle" x="91.605623" y="104.363327" transform="rotate(-0 91.605623 104.363327)">Coverage</text>
    </g>
   </g>
   <g id="matplotlib.axis_2">
    <g id="ytick_1">
     <g id="line2d_5">
      <defs>
       <path id="mcc9ea6d947" d="M 0 0 
L -3.5 0 
" style="stroke: #000000; stroke-width: 0.8"/>
      </defs>
      <g>
       <use xlink:href="#mcc9ea6d947" x="34.76" y="70.864428" style="stroke: #000000; stroke-width: 0.8"/>
      </g>
     </g>
     <g id="text_6">
      <text style="font: 7px 'arial'; text-anchor: end" x="27.76" y="73.369663" transform="rotate(-0 27.76 73.369663)">0.2</text>
     </g>
    </g>
    <g id="ytick_2">
     <g id="line2d_6">
      <g>
       <use xlink:href="#mcc9ea6d947" x="34.76" y="54.712338" style="stroke: #000000; stroke-width: 0.8"/>
      </g>
     </g>
     <g id="text_7">
      <text style="font: 7px 'arial'; text-anchor: end" x="27.76" y="57.217572" transform="rotate(-0 27.76 57.217572)">0.4</text>
     </g>
    </g>
    <g id="ytick_3">
     <g id="line2d_7">
      <g>
       <use xlink:href="#mcc9ea6d947" x="34.76" y="38.560247" style="stroke: #000000; stroke-width: 0.8"/>
      </g>
     </g>
     <g id="text_8">
      <text style="font: 7px 'arial'; text-anchor: end" x="27.76" y="41.065481" transform="rotate(-0 27.76 41.065481)">0.6</text>
     </g>
    </g>
    <g id="ytick_4">
     <g id="line2d_8">
      <g>
       <use xlink:href="#mcc9ea6d947" x="34.76" y="22.408156" style="stroke: #000000; stroke-width: 0.8"/>
      </g>
     </g>
     <g id="text_9">
      <text style="font: 7px 'arial'; text-anchor: end" x="27.76" y="24.913391" transform="rotate(-0 27.76 24.913391)">0.8</text>
     </g>
    </g>
    <g id="text_10">
     <text style="font: 7px 'arial'; text-anchor: middle" x="12.556719" y="44.712913" transform="rotate(-90 12.556719 44.712913)">Fraction recovered (spike-in)</text>
    </g>
   </g>
   <g id="line2d_9">
    <path d="M 39.927784 42.453598 
L 65.815121 19.955 
L 91.637901 14.024482 
L 117.460681 16.219967 
L 143.283462 12.800406 
" clip-path="url(#pabbb450ee4)" style="fill: none; stroke: #4878d0; stroke-width: 1.5; stroke-linecap: square"/>
    <defs>
     <path id="m319f264aa7" d="M 0 3 
C 0.795609 3 1.55874 2.683901 2.12132 2.12132 
C 2.683901 1.55874 3 0.795609 3 0 
C 3 -0.795609 2.683901 -1.55874 2.12132 -2.12132 
C 1.55874 -2.683901 0.795609 -3 0 -3 
C -0.795609 -3 -1.55874 -2.683901 -2.12132 -2.12132 
C -2.683901 -1.55874 -3 -0.795609 -3 0 
C -3 0.795609 -2.683901 1.55874 -2.12132 2.12132 
C -1.55874 2.683901 -0.795609 3 0 3 
z
" style="stroke: #ffffff; stroke-width: 0.75"/>
    </defs>
    <g clip-path="url(#pabbb450ee4)">
     <use xlink:href="#m319f264aa7" x="39.927784" y="42.453598" style="fill: #4878d0; stroke: #ffffff; stroke-width: 0.75"/>
     <use xlink:href="#m319f264aa7" x="65.815121" y="19.955" style="fill: #4878d0; stroke: #ffffff; stroke-width: 0.75"/>
     <use xlink:href="#m319f264aa7" x="91.637901" y="14.024482" style="fill: #4878d0; stroke: #ffffff; stroke-width: 0.75"/>
     <use xlink:href="#m319f264aa7" x="117.460681" y="16.219967" style="fill: #4878d0; stroke: #ffffff; stroke-width: 0.75"/>
     <use xlink:href="#m319f264aa7" x="143.283462" y="12.800406" style="fill: #4878d0; stroke: #ffffff; stroke-width: 0.75"/>
    </g>
   </g>
   <g id="line2d_10">
    <path d="M 39.927784 72.782453 
L 65.815121 72.243265 
L 91.637901 67.58611 
L 117.460681 64.596613 
L 143.283462 62.881211 
" clip-path="url(#pabbb450ee4)" style="fill: none; stroke: #ee854a; stroke-width: 1.5; stroke-linecap: square"/>
    <defs>
     <path id="m6027d56f59" d="M 0 3 
C 0.795609 3 1.55874 2.683901 2.12132 2.12132 
C 2.683901 1.55874 3 0.795609 3 0 
C 3 -0.795609 2.683901 -1.55874 2.12132 -2.12132 
C 1.55874 -2.683901 0.795609 -3 0 -3 
C -0.795609 -3 -1.55874 -2.683901 -2.12132 -2.12132 
C -2.683901 -1.55874 -3 -0.795609 -3 0 
C -3 0.795609 -2.683901 1.55874 -2.12132 2.12132 
C -1.55874 2.683901 -0.795609 3 0 3 
z
" style="stroke: #ffffff; stroke-width: 0.75"/>
    </defs>
    <g clip-path="url(#pabbb450ee4)">
     <use xlink:href="#m6027d56f59" x="39.927784" y="72.782453" style="fill: #ee854a; stroke: #ffffff; stroke-width: 0.75"/>
     <use xlink:href="#m6027d56f59" x="65.815121" y="72.243265" style="fill: #ee854a; stroke: #ffffff; stroke-width: 0.75"/>
     <use xlink:href="#m6027d56f59" x="91.637901" y="67.58611" style="fill: #ee854a; stroke: #ffffff; stroke-width: 0.75"/>
     <use xlink:href="#m6027d56f59" x="117.460681" y="64.596613" style="fill: #ee854a; stroke: #ffffff; stroke-width: 0.75"/>
     <use xlink:href="#m6027d56f59" x="143.283462" y="62.881211" style="fill: #ee854a; stroke: #ffffff; stroke-width: 0.75"/>
    </g>
   </g>
   <g id="line2d_11">
    <path d="M 39.927784 76.565166 
L 65.815121 74.213032 
L 91.637901 54.877155 
L 117.460681 46.637425 
L 143.283462 45.243871 
" clip-path="url(#pabbb450ee4)" style="fill: none; stroke: #6acc64; stroke-width: 1.5; stroke-linecap: square"/>
    <defs>
     <path id="m065e51bfed" d="M 0 3 
C 0.795609 3 1.55874 2.683901 2.12132 2.12132 
C 2.683901 1.55874 3 0.795609 3 0 
C 3 -0.795609 2.683901 -1.55874 2.12132 -2.12132 
C 1.55874 -2.683901 0.795609 -3 0 -3 
C -0.795609 -3 -1.55874 -2.683901 -2.12132 -2.12132 
C -2.683901 -1.55874 -3 -0.795609 -3 0 
C -3 0.795609 -2.683901 1.55874 -2.12132 2.12132 
C -1.55874 2.683901 -0.795609 3 0 3 
z
" style="stroke: #ffffff; stroke-width: 0.75"/>
    </defs>
    <g clip-path="url(#pabbb450ee4)">
     <use xlink:href="#m065e51bfed" x="39.927784" y="76.565166" style="fill: #6acc64; stroke: #ffffff; stroke-width: 0.75"/>
     <use xlink:href="#m065e51bfed" x="65.815121" y="74.213032" style="fill: #6acc64; stroke: #ffffff; stroke-width: 0.75"/>
     <use xlink:href="#m065e51bfed" x="91.637901" y="54.877155" style="fill: #6acc64; stroke: #ffffff; stroke-width: 0.75"/>
     <use xlink:href="#m065e51bfed" x="117.460681" y="46.637425" style="fill: #6acc64; stroke: #ffffff; stroke-width: 0.75"/>
     <use xlink:href="#m065e51bfed" x="143.283462" y="45.243871" style="fill: #6acc64; stroke: #ffffff; stroke-width: 0.75"/>
    </g>
   </g>
   <g id="line2d_12">
    <path d="M 39.927784 50.281187 
L 65.815121 51.262449 
L 91.637901 54.265203 
L 117.460681 49.796926 
L 143.283462 50.227504 
" clip-path="url(#pabbb450ee4)" style="fill: none; stroke: #d65f5f; stroke-width: 1.5; stroke-linecap: square"/>
    <defs>
     <path id="m20fe9ed39b" d="M 0 3 
C 0.795609 3 1.55874 2.683901 2.12132 2.12132 
C 2.683901 1.55874 3 0.795609 3 0 
C 3 -0.795609 2.683901 -1.55874 2.12132 -2.12132 
C 1.55874 -2.683901 0.795609 -3 0 -3 
C -0.795609 -3 -1.55874 -2.683901 -2.12132 -2.12132 
C -2.683901 -1.55874 -3 -0.795609 -3 0 
C -3 0.795609 -2.683901 1.55874 -2.12132 2.12132 
C -1.55874 2.683901 -0.795609 3 0 3 
z
" style="stroke: #ffffff; stroke-width: 0.75"/>
    </defs>
    <g clip-path="url(#pabbb450ee4)">
     <use xlink:href="#m20fe9ed39b" x="39.927784" y="50.281187" style="fill: #d65f5f; stroke: #ffffff; stroke-width: 0.75"/>
     <use xlink:href="#m20fe9ed39b" x="65.815121" y="51.262449" style="fill: #d65f5f; stroke: #ffffff; stroke-width: 0.75"/>
     <use xlink:href="#m20fe9ed39b" x="91.637901" y="54.265203" style="fill: #d65f5f; stroke: #ffffff; stroke-width: 0.75"/>
     <use xlink:href="#m20fe9ed39b" x="117.460681" y="49.796926" style="fill: #d65f5f; stroke: #ffffff; stroke-width: 0.75"/>
     <use xlink:href="#m20fe9ed39b" x="143.283462" y="50.227504" style="fill: #d65f5f; stroke: #ffffff; stroke-width: 0.75"/>
    </g>
   </g>
   <g id="line2d_13"/>
   <g id="line2d_14"/>
   <g id="line2d_15"/>
   <g id="line2d_16"/>
   <g id="patch_3">
    <path d="M 34.76 81.865827 
L 34.76 7.56 
" style="fill: none; stroke: #000000; stroke-width: 0.8; stroke-linejoin: miter; stroke-linecap: square"/>
   </g>
   <g id="patch_4">
    <path d="M 34.76 81.865827 
L 148.451245 81.865827 
" style="fill: none; stroke: #000000; stroke-width: 0.8; stroke-linejoin: miter; stroke-linecap: square"/>
   </g>
  </g>
  <g id="axes_2">
   <g id="patch_5">
    <path d="M 183.211245 81.865827 
L 296.902491 81.865827 
L 296.902491 7.56 
L 183.211245 7.56 
z
" style="fill: #ffffff"/>
   </g>
   <g id="PolyCollection_5">
    <defs>
     <path id="m2ac65b129d" d="M 188.379029 -99.325633 
L 188.379029 -87.1119 
L 209.050165 -96.279893 
L 229.7213 -93.513722 
L 250.392436 -90.098113 
L 271.063571 -85.685839 
L 291.734707 -83.265091 
L 291.734707 -85.688013 
L 291.734707 -85.688013 
L 271.063571 -92.297372 
L 250.392436 -97.999789 
L 229.7213 -102.448289 
L 209.050165 -101.324364 
L 188.379029 -99.325633 
z
" style="stroke: #4878d0; stroke-opacity: 0.2"/>
    </defs>
    <g clip-path="url(#pa96cf25c31)">
     <use xlink:href="#m2ac65b129d" x="0" y="113.385827" style="fill: #4878d0; fill-opacity: 0.2; stroke: #4878d0; stroke-opacity: 0.2"/>
    </g>
   </g>
   <g id="PolyCollection_6">
    <defs>
     <path id="m3aa56674e4" d="M 188.379029 -70.853142 
L 188.379029 -53.649854 
L 209.050165 -58.466253 
L 229.7213 -58.186626 
L 250.392436 -36.153695 
L 271.063571 -35.923432 
L 291.734707 -34.897538 
L 291.734707 -36.994032 
L 291.734707 -36.994032 
L 271.063571 -42.309742 
L 250.392436 -46.702535 
L 229.7213 -75.252833 
L 209.050165 -73.348394 
L 188.379029 -70.853142 
z
" style="stroke: #ee854a; stroke-opacity: 0.2"/>
    </defs>
    <g clip-path="url(#pa96cf25c31)">
     <use xlink:href="#m3aa56674e4" x="0" y="113.385827" style="fill: #ee854a; fill-opacity: 0.2; stroke: #ee854a; stroke-opacity: 0.2"/>
    </g>
   </g>
   <g id="PolyCollection_7">
    <defs>
     <path id="m042ff4bcf1" d="M 188.379029 -80.124422 
L 188.379029 -62.251498 
L 209.050165 -69.369856 
L 229.7213 -39.651261 
L 250.392436 -47.162406 
L 271.063571 -37.206272 
L 291.734707 -46.283994 
L 291.734707 -48.855534 
L 291.734707 -48.855534 
L 271.063571 -43.989254 
L 250.392436 -58.780246 
L 229.7213 -58.042348 
L 209.050165 -84.379744 
L 188.379029 -80.124422 
z
" style="stroke: #6acc64; stroke-opacity: 0.2"/>
    </defs>
    <g clip-path="url(#pa96cf25c31)">
     <use xlink:href="#m042ff4bcf1" x="0" y="113.385827" style="fill: #6acc64; fill-opacity: 0.2; stroke: #6acc64; stroke-opacity: 0.2"/>
    </g>
   </g>
   <g id="PolyCollection_8">
    <defs>
     <path id="ma2a1156302" d="M 188.379029 -90.218043 
L 188.379029 -75.797929 
L 209.050165 -88.563805 
L 229.7213 -85.11986 
L 250.392436 -81.257876 
L 271.063571 -55.556675 
L 291.734707 -41.762262 
L 291.734707 -44.75389 
L 291.734707 -44.75389 
L 271.063571 -63.367921 
L 250.392436 -90.540945 
L 229.7213 -97.019093 
L 209.050165 -96.043474 
L 188.379029 -90.218043 
z
" style="stroke: #d65f5f; stroke-opacity: 0.2"/>
    </defs>
    <g clip-path="url(#pa96cf25c31)">
     <use xlink:href="#ma2a1156302" x="0" y="113.385827" style="fill: #d65f5f; fill-opacity: 0.2; stroke: #d65f5f; stroke-opacity: 0.2"/>
    </g>
   </g>
   <g id="matplotlib.axis_3">
    <g id="xtick_5">
     <g id="line2d_17">
      <g>
       <use xlink:href="#m4160ac6e9f" x="187.738773" y="81.865827" style="stroke: #000000; stroke-width: 0.8"/>
      </g>
     </g>
     <g id="text_11">
      <text style="font: 7px 'arial'; text-anchor: middle" x="187.738773" y="93.876296" transform="rotate(-0 187.738773 93.876296)">97.5</text>
     </g>
    </g>
    <g id="xtick_6">
     <g id="line2d_18">
      <g>
       <use xlink:href="#m4160ac6e9f" x="210.605073" y="81.865827" style="stroke: #000000; stroke-width: 0.8"/>
      </g>
     </g>
     <g id="text_12">
      <text style="font: 7px 'arial'; text-anchor: middle" x="210.605073" y="93.876296" transform="rotate(-0 210.605073 93.876296)">98.0</text>
     </g>
    </g>
    <g id="xtick_7">
     <g id="line2d_19">
      <g>
       <use xlink:href="#m4160ac6e9f" x="233.471374" y="81.865827" style="stroke: #000000; stroke-width: 0.8"/>
      </g>
     </g>
     <g id="text_13">
      <text style="font: 7px 'arial'; text-anchor: middle" x="233.471374" y="93.876296" transform="rotate(-0 233.471374 93.876296)">98.5</text>
     </g>
    </g>
    <g id="xtick_8">
     <g id="line2d_20">
      <g>
       <use xlink:href="#m4160ac6e9f" x="256.337674" y="81.865827" style="stroke: #000000; stroke-width: 0.8"/>
      </g>
     </g>
     <g id="text_14">
      <text style="font: 7px 'arial'; text-anchor: middle" x="256.337674" y="93.876296" transform="rotate(-0 256.337674 93.876296)">99.0</text>
     </g>
    </g>
    <g id="xtick_9">
     <g id="line2d_21">
      <g>
       <use xlink:href="#m4160ac6e9f" x="279.203974" y="81.865827" style="stroke: #000000; stroke-width: 0.8"/>
      </g>
     </g>
     <g id="text_15">
      <text style="font: 7px 'arial'; text-anchor: middle" x="279.203974" y="93.876296" transform="rotate(-0 279.203974 93.876296)">99.5</text>
     </g>
    </g>
    <g id="text_16">
     <text style="font: 7px 'arial'; text-anchor: middle" x="240.056868" y="104.363327" transform="rotate(-0 240.056868 104.363327)">% identity to ref.</text>
    </g>
   </g>
   <g id="matplotlib.axis_4">
    <g id="ytick_5">
     <g id="line2d_22">
      <g>
       <use xlink:href="#mcc9ea6d947" x="183.211245" y="75.262777" style="stroke: #000000; stroke-width: 0.8"/>
      </g>
     </g>
     <g id="text_17">
      <text style="font: 7px 'arial'; text-anchor: end" x="176.211245" y="77.768011" transform="rotate(-0 176.211245 77.768011)">0.2</text>
     </g>
    </g>
    <g id="ytick_6">
     <g id="line2d_23">
      <g>
       <use xlink:href="#mcc9ea6d947" x="183.211245" y="59.177145" style="stroke: #000000; stroke-width: 0.8"/>
      </g>
     </g>
     <g id="text_18">
      <text style="font: 7px 'arial'; text-anchor: end" x="176.211245" y="61.682379" transform="rotate(-0 176.211245 61.682379)">0.4</text>
     </g>
    </g>
    <g id="ytick_7">
     <g id="line2d_24">
      <g>
       <use xlink:href="#mcc9ea6d947" x="183.211245" y="43.091513" style="stroke: #000000; stroke-width: 0.8"/>
      </g>
     </g>
     <g id="text_19">
      <text style="font: 7px 'arial'; text-anchor: end" x="176.211245" y="45.596747" transform="rotate(-0 176.211245 45.596747)">0.6</text>
     </g>
    </g>
    <g id="ytick_8">
     <g id="line2d_25">
      <g>
       <use xlink:href="#mcc9ea6d947" x="183.211245" y="27.005881" style="stroke: #000000; stroke-width: 0.8"/>
      </g>
     </g>
     <g id="text_20">
      <text style="font: 7px 'arial'; text-anchor: end" x="176.211245" y="29.511115" transform="rotate(-0 176.211245 29.511115)">0.8</text>
     </g>
    </g>
    <g id="ytick_9">
     <g id="line2d_26">
      <g>
       <use xlink:href="#mcc9ea6d947" x="183.211245" y="10.920249" style="stroke: #000000; stroke-width: 0.8"/>
      </g>
     </g>
     <g id="text_21">
      <text style="font: 7px 'arial'; text-anchor: end" x="176.211245" y="13.425483" transform="rotate(-0 176.211245 13.425483)">1.0</text>
     </g>
    </g>
    <g id="text_22">
     <text style="font: 7px 'arial'; text-anchor: middle" x="161.007964" y="44.712913" transform="rotate(-90 161.007964 44.712913)">Fraction recovered (spike-in)</text>
    </g>
   </g>
   <g id="line2d_27">
    <path d="M 188.379029 20.167061 
L 209.050165 14.583698 
L 229.7213 15.404821 
L 250.392436 19.336876 
L 271.063571 24.394221 
L 291.734707 28.909275 
" clip-path="url(#pa96cf25c31)" style="fill: none; stroke: #4878d0; stroke-width: 1.5; stroke-linecap: square"/>
    <g clip-path="url(#pa96cf25c31)">
     <use xlink:href="#m319f264aa7" x="188.379029" y="20.167061" style="fill: #4878d0; stroke: #ffffff; stroke-width: 0.75"/>
     <use xlink:href="#m319f264aa7" x="209.050165" y="14.583698" style="fill: #4878d0; stroke: #ffffff; stroke-width: 0.75"/>
     <use xlink:href="#m319f264aa7" x="229.7213" y="15.404821" style="fill: #4878d0; stroke: #ffffff; stroke-width: 0.75"/>
     <use xlink:href="#m319f264aa7" x="250.392436" y="19.336876" style="fill: #4878d0; stroke: #ffffff; stroke-width: 0.75"/>
     <use xlink:href="#m319f264aa7" x="271.063571" y="24.394221" style="fill: #4878d0; stroke: #ffffff; stroke-width: 0.75"/>
     <use xlink:href="#m319f264aa7" x="291.734707" y="28.909275" style="fill: #4878d0; stroke: #ffffff; stroke-width: 0.75"/>
    </g>
   </g>
   <g id="line2d_28">
    <path d="M 188.379029 51.134329 
L 209.050165 47.478503 
L 229.7213 46.666098 
L 250.392436 71.957712 
L 271.063571 74.26924 
L 291.734707 77.440042 
" clip-path="url(#pa96cf25c31)" style="fill: none; stroke: #ee854a; stroke-width: 1.5; stroke-linecap: square"/>
    <g clip-path="url(#pa96cf25c31)">
     <use xlink:href="#m6027d56f59" x="188.379029" y="51.134329" style="fill: #ee854a; stroke: #ffffff; stroke-width: 0.75"/>
     <use xlink:href="#m6027d56f59" x="209.050165" y="47.478503" style="fill: #ee854a; stroke: #ffffff; stroke-width: 0.75"/>
     <use xlink:href="#m6027d56f59" x="229.7213" y="46.666098" style="fill: #ee854a; stroke: #ffffff; stroke-width: 0.75"/>
     <use xlink:href="#m6027d56f59" x="250.392436" y="71.957712" style="fill: #ee854a; stroke: #ffffff; stroke-width: 0.75"/>
     <use xlink:href="#m6027d56f59" x="271.063571" y="74.26924" style="fill: #ee854a; stroke: #ffffff; stroke-width: 0.75"/>
     <use xlink:href="#m6027d56f59" x="291.734707" y="77.440042" style="fill: #ee854a; stroke: #ffffff; stroke-width: 0.75"/>
    </g>
   </g>
   <g id="line2d_29">
    <path d="M 188.379029 42.197867 
L 209.050165 36.511027 
L 229.7213 64.539022 
L 250.392436 60.414501 
L 271.063571 72.788064 
L 291.734707 65.816063 
" clip-path="url(#pa96cf25c31)" style="fill: none; stroke: #6acc64; stroke-width: 1.5; stroke-linecap: square"/>
    <g clip-path="url(#pa96cf25c31)">
     <use xlink:href="#m065e51bfed" x="188.379029" y="42.197867" style="fill: #6acc64; stroke: #ffffff; stroke-width: 0.75"/>
     <use xlink:href="#m065e51bfed" x="209.050165" y="36.511027" style="fill: #6acc64; stroke: #ffffff; stroke-width: 0.75"/>
     <use xlink:href="#m065e51bfed" x="229.7213" y="64.539022" style="fill: #6acc64; stroke: #ffffff; stroke-width: 0.75"/>
     <use xlink:href="#m065e51bfed" x="250.392436" y="60.414501" style="fill: #6acc64; stroke: #ffffff; stroke-width: 0.75"/>
     <use xlink:href="#m065e51bfed" x="271.063571" y="72.788064" style="fill: #6acc64; stroke: #ffffff; stroke-width: 0.75"/>
     <use xlink:href="#m065e51bfed" x="291.734707" y="65.816063" style="fill: #6acc64; stroke: #ffffff; stroke-width: 0.75"/>
    </g>
   </g>
   <g id="line2d_30">
    <path d="M 188.379029 30.377841 
L 209.050165 21.082187 
L 229.7213 22.31635 
L 250.392436 27.486417 
L 271.063571 53.923529 
L 291.734707 70.127751 
" clip-path="url(#pa96cf25c31)" style="fill: none; stroke: #d65f5f; stroke-width: 1.5; stroke-linecap: square"/>
    <g clip-path="url(#pa96cf25c31)">
     <use xlink:href="#m20fe9ed39b" x="188.379029" y="30.377841" style="fill: #d65f5f; stroke: #ffffff; stroke-width: 0.75"/>
     <use xlink:href="#m20fe9ed39b" x="209.050165" y="21.082187" style="fill: #d65f5f; stroke: #ffffff; stroke-width: 0.75"/>
     <use xlink:href="#m20fe9ed39b" x="229.7213" y="22.31635" style="fill: #d65f5f; stroke: #ffffff; stroke-width: 0.75"/>
     <use xlink:href="#m20fe9ed39b" x="250.392436" y="27.486417" style="fill: #d65f5f; stroke: #ffffff; stroke-width: 0.75"/>
     <use xlink:href="#m20fe9ed39b" x="271.063571" y="53.923529" style="fill: #d65f5f; stroke: #ffffff; stroke-width: 0.75"/>
     <use xlink:href="#m20fe9ed39b" x="291.734707" y="70.127751" style="fill: #d65f5f; stroke: #ffffff; stroke-width: 0.75"/>
    </g>
   </g>
   <g id="line2d_31"/>
   <g id="line2d_32"/>
   <g id="line2d_33"/>
   <g id="line2d_34"/>
   <g id="patch_6">
    <path d="M 183.211245 81.865827 
L 183.211245 7.56 
" style="fill: none; stroke: #000000; stroke-width: 0.8; stroke-linejoin: miter; stroke-linecap: square"/>
   </g>
   <g id="patch_7">
    <path d="M 183.211245 81.865827 
L 296.902491 81.865827 
" style="fill: none; stroke: #000000; stroke-width: 0.8; stroke-linejoin: miter; stroke-linecap: square"/>
   </g>
  </g>
  <g id="axes_3">
   <g id="patch_8">
    <path d="M 331.662491 81.865827 
L 445.353736 81.865827 
L 445.353736 7.56 
L 331.662491 7.56 
z
" style="fill: #ffffff"/>
   </g>
   <g id="PolyCollection_9">
    <defs>
     <path id="m11443374b6" d="M 336.830275 -87.487353 
L 336.830275 -84.986583 
L 362.719636 -92.780477 
L 388.566287 -92.934341 
L 414.412938 -85.620073 
L 440.185952 -98.252733 
L 440.185952 -102.448289 
L 440.185952 -102.448289 
L 414.412938 -102.448289 
L 388.566287 -97.116865 
L 362.719636 -96.511719 
L 336.830275 -87.487353 
z
" style="stroke: #4878d0; stroke-opacity: 0.2"/>
    </defs>
    <g clip-path="url(#p661f4610e9)">
     <use xlink:href="#m11443374b6" x="0" y="113.385827" style="fill: #4878d0; fill-opacity: 0.2; stroke: #4878d0; stroke-opacity: 0.2"/>
    </g>
   </g>
   <g id="PolyCollection_10">
    <defs>
     <path id="mb77fb0d58b" d="M 336.830275 -37.567751 
L 336.830275 -34.897538 
L 362.719636 -43.401153 
L 388.566287 -53.363093 
L 414.412938 -35.135424 
L 440.185952 -46.354235 
L 440.185952 -102.448289 
L 440.185952 -102.448289 
L 414.412938 -60.377748 
L 388.566287 -70.732992 
L 362.719636 -53.498773 
L 336.830275 -37.567751 
z
" style="stroke: #ee854a; stroke-opacity: 0.2"/>
    </defs>
    <g clip-path="url(#p661f4610e9)">
     <use xlink:href="#mb77fb0d58b" x="0" y="113.385827" style="fill: #ee854a; fill-opacity: 0.2; stroke: #ee854a; stroke-opacity: 0.2"/>
    </g>
   </g>
   <g id="PolyCollection_11">
    <defs>
     <path id="me5585dc098" d="M 336.830275 -46.885305 
L 336.830275 -43.87576 
L 362.719636 -57.327907 
L 388.566287 -52.709846 
L 414.412938 -51.96364 
L 440.185952 -62.381107 
L 440.185952 -102.448289 
L 440.185952 -102.448289 
L 414.412938 -60.377748 
L 388.566287 -67.461306 
L 362.719636 -66.852134 
L 336.830275 -46.885305 
z
" style="stroke: #6acc64; stroke-opacity: 0.2"/>
    </defs>
    <g clip-path="url(#p661f4610e9)">
     <use xlink:href="#me5585dc098" x="0" y="113.385827" style="fill: #6acc64; fill-opacity: 0.2; stroke: #6acc64; stroke-opacity: 0.2"/>
    </g>
   </g>
   <g id="PolyCollection_12">
    <defs>
     <path id="mdd952fa313" d="M 336.830275 -57.463003 
L 336.830275 -53.9469 
L 362.719636 -47.531627 
L 388.566287 -51.292613 
L 414.412938 -42.489615 
L 440.185952 -41.340948 
L 440.185952 -96.438212 
L 440.185952 -96.438212 
L 414.412938 -60.180543 
L 388.566287 -68.090645 
L 362.719636 -57.61984 
L 336.830275 -57.463003 
z
" style="stroke: #d65f5f; stroke-opacity: 0.2"/>
    </defs>
    <g clip-path="url(#p661f4610e9)">
     <use xlink:href="#mdd952fa313" x="0" y="113.385827" style="fill: #d65f5f; fill-opacity: 0.2; stroke: #d65f5f; stroke-opacity: 0.2"/>
    </g>
   </g>
   <g id="matplotlib.axis_5">
    <g id="xtick_10">
     <g id="line2d_35">
      <g>
       <use xlink:href="#m4160ac6e9f" x="352.336793" y="81.865827" style="stroke: #000000; stroke-width: 0.8"/>
      </g>
     </g>
     <g id="text_23">
      <text style="font: 7px 'arial'; text-anchor: middle" x="352.336793" y="93.876296" transform="rotate(-0 352.336793 93.876296)">0.2</text>
     </g>
    </g>
    <g id="xtick_11">
     <g id="line2d_36">
      <g>
       <use xlink:href="#m4160ac6e9f" x="381.791666" y="81.865827" style="stroke: #000000; stroke-width: 0.8"/>
      </g>
     </g>
     <g id="text_24">
      <text style="font: 7px 'arial'; text-anchor: middle" x="381.791666" y="93.876296" transform="rotate(-0 381.791666 93.876296)">0.4</text>
     </g>
    </g>
    <g id="xtick_12">
     <g id="line2d_37">
      <g>
       <use xlink:href="#m4160ac6e9f" x="411.246539" y="81.865827" style="stroke: #000000; stroke-width: 0.8"/>
      </g>
     </g>
     <g id="text_25">
      <text style="font: 7px 'arial'; text-anchor: middle" x="411.246539" y="93.876296" transform="rotate(-0 411.246539 93.876296)">0.6</text>
     </g>
    </g>
    <g id="xtick_13">
     <g id="line2d_38">
      <g>
       <use xlink:href="#m4160ac6e9f" x="440.701413" y="81.865827" style="stroke: #000000; stroke-width: 0.8"/>
      </g>
     </g>
     <g id="text_26">
      <text style="font: 7px 'arial'; text-anchor: middle" x="440.701413" y="93.876296" transform="rotate(-0 440.701413 93.876296)">0.8</text>
     </g>
    </g>
    <g id="text_27">
     <text style="font: 7px 'arial'; text-anchor: middle" x="388.508114" y="104.278014" transform="rotate(-0 388.508114 104.278014)">Abundance</text>
    </g>
   </g>
   <g id="matplotlib.axis_6">
    <g id="ytick_10">
     <g id="line2d_39">
      <g>
       <use xlink:href="#mcc9ea6d947" x="331.662491" y="78.250403" style="stroke: #000000; stroke-width: 0.8"/>
      </g>
     </g>
     <g id="text_28">
      <text style="font: 7px 'arial'; text-anchor: end" x="324.662491" y="80.755637" transform="rotate(-0 324.662491 80.755637)">0.2</text>
     </g>
    </g>
    <g id="ytick_11">
     <g id="line2d_40">
      <g>
       <use xlink:href="#mcc9ea6d947" x="331.662491" y="61.422187" style="stroke: #000000; stroke-width: 0.8"/>
      </g>
     </g>
     <g id="text_29">
      <text style="font: 7px 'arial'; text-anchor: end" x="324.662491" y="63.927421" transform="rotate(-0 324.662491 63.927421)">0.4</text>
     </g>
    </g>
    <g id="ytick_12">
     <g id="line2d_41">
      <g>
       <use xlink:href="#mcc9ea6d947" x="331.662491" y="44.59397" style="stroke: #000000; stroke-width: 0.8"/>
      </g>
     </g>
     <g id="text_30">
      <text style="font: 7px 'arial'; text-anchor: end" x="324.662491" y="47.099205" transform="rotate(-0 324.662491 47.099205)">0.6</text>
     </g>
    </g>
    <g id="ytick_13">
     <g id="line2d_42">
      <g>
       <use xlink:href="#mcc9ea6d947" x="331.662491" y="27.765754" style="stroke: #000000; stroke-width: 0.8"/>
      </g>
     </g>
     <g id="text_31">
      <text style="font: 7px 'arial'; text-anchor: end" x="324.662491" y="30.270988" transform="rotate(-0 324.662491 30.270988)">0.8</text>
     </g>
    </g>
    <g id="ytick_14">
     <g id="line2d_43">
      <g>
       <use xlink:href="#mcc9ea6d947" x="331.662491" y="10.937538" style="stroke: #000000; stroke-width: 0.8"/>
      </g>
     </g>
     <g id="text_32">
      <text style="font: 7px 'arial'; text-anchor: end" x="324.662491" y="13.442772" transform="rotate(-0 324.662491 13.442772)">1.0</text>
     </g>
    </g>
    <g id="text_33">
     <text style="font: 7px 'arial'; text-anchor: middle" x="309.45921" y="44.712913" transform="rotate(-90 309.45921 44.712913)">Fraction recovered (spike-in)</text>
    </g>
   </g>
   <g id="line2d_44">
    <path d="M 336.830275 27.148859 
L 362.719636 18.739729 
L 388.566287 18.360224 
L 414.412938 19.351646 
L 440.185952 13.035316 
" clip-path="url(#p661f4610e9)" style="fill: none; stroke: #4878d0; stroke-width: 1.5; stroke-linecap: square"/>
    <g clip-path="url(#p661f4610e9)">
     <use xlink:href="#m319f264aa7" x="336.830275" y="27.148859" style="fill: #4878d0; stroke: #ffffff; stroke-width: 0.75"/>
     <use xlink:href="#m319f264aa7" x="362.719636" y="18.739729" style="fill: #4878d0; stroke: #ffffff; stroke-width: 0.75"/>
     <use xlink:href="#m319f264aa7" x="388.566287" y="18.360224" style="fill: #4878d0; stroke: #ffffff; stroke-width: 0.75"/>
     <use xlink:href="#m319f264aa7" x="414.412938" y="19.351646" style="fill: #4878d0; stroke: #ffffff; stroke-width: 0.75"/>
     <use xlink:href="#m319f264aa7" x="440.185952" y="13.035316" style="fill: #4878d0; stroke: #ffffff; stroke-width: 0.75"/>
    </g>
   </g>
   <g id="line2d_45">
    <path d="M 336.830275 77.153182 
L 362.719636 64.935864 
L 388.566287 51.337784 
L 414.412938 65.629241 
L 440.185952 38.984565 
" clip-path="url(#p661f4610e9)" style="fill: none; stroke: #ee854a; stroke-width: 1.5; stroke-linecap: square"/>
    <g clip-path="url(#p661f4610e9)">
     <use xlink:href="#m6027d56f59" x="336.830275" y="77.153182" style="fill: #ee854a; stroke: #ffffff; stroke-width: 0.75"/>
     <use xlink:href="#m6027d56f59" x="362.719636" y="64.935864" style="fill: #ee854a; stroke: #ffffff; stroke-width: 0.75"/>
     <use xlink:href="#m6027d56f59" x="388.566287" y="51.337784" style="fill: #ee854a; stroke: #ffffff; stroke-width: 0.75"/>
     <use xlink:href="#m6027d56f59" x="414.412938" y="65.629241" style="fill: #ee854a; stroke: #ffffff; stroke-width: 0.75"/>
     <use xlink:href="#m6027d56f59" x="440.185952" y="38.984565" style="fill: #ee854a; stroke: #ffffff; stroke-width: 0.75"/>
    </g>
   </g>
   <g id="line2d_46">
    <path d="M 336.830275 68.005295 
L 362.719636 51.295806 
L 388.566287 53.300251 
L 414.412938 57.215133 
L 440.185952 30.971129 
" clip-path="url(#p661f4610e9)" style="fill: none; stroke: #6acc64; stroke-width: 1.5; stroke-linecap: square"/>
    <g clip-path="url(#p661f4610e9)">
     <use xlink:href="#m065e51bfed" x="336.830275" y="68.005295" style="fill: #6acc64; stroke: #ffffff; stroke-width: 0.75"/>
     <use xlink:href="#m065e51bfed" x="362.719636" y="51.295806" style="fill: #6acc64; stroke: #ffffff; stroke-width: 0.75"/>
     <use xlink:href="#m065e51bfed" x="388.566287" y="53.300251" style="fill: #6acc64; stroke: #ffffff; stroke-width: 0.75"/>
     <use xlink:href="#m065e51bfed" x="414.412938" y="57.215133" style="fill: #6acc64; stroke: #ffffff; stroke-width: 0.75"/>
     <use xlink:href="#m065e51bfed" x="440.185952" y="30.971129" style="fill: #6acc64; stroke: #ffffff; stroke-width: 0.75"/>
    </g>
   </g>
   <g id="line2d_47">
    <path d="M 336.830275 57.680875 
L 362.719636 60.810094 
L 388.566287 53.694197 
L 414.412938 62.050748 
L 440.185952 44.496247 
" clip-path="url(#p661f4610e9)" style="fill: none; stroke: #d65f5f; stroke-width: 1.5; stroke-linecap: square"/>
    <g clip-path="url(#p661f4610e9)">
     <use xlink:href="#m20fe9ed39b" x="336.830275" y="57.680875" style="fill: #d65f5f; stroke: #ffffff; stroke-width: 0.75"/>
     <use xlink:href="#m20fe9ed39b" x="362.719636" y="60.810094" style="fill: #d65f5f; stroke: #ffffff; stroke-width: 0.75"/>
     <use xlink:href="#m20fe9ed39b" x="388.566287" y="53.694197" style="fill: #d65f5f; stroke: #ffffff; stroke-width: 0.75"/>
     <use xlink:href="#m20fe9ed39b" x="414.412938" y="62.050748" style="fill: #d65f5f; stroke: #ffffff; stroke-width: 0.75"/>
     <use xlink:href="#m20fe9ed39b" x="440.185952" y="44.496247" style="fill: #d65f5f; stroke: #ffffff; stroke-width: 0.75"/>
    </g>
   </g>
   <g id="line2d_48"/>
   <g id="line2d_49"/>
   <g id="line2d_50"/>
   <g id="line2d_51"/>
   <g id="patch_9">
    <path d="M 331.662491 81.865827 
L 331.662491 7.56 
" style="fill: none; stroke: #000000; stroke-width: 0.8; stroke-linejoin: miter; stroke-linecap: square"/>
   </g>
   <g id="patch_10">
    <path d="M 331.662491 81.865827 
L 445.353736 81.865827 
" style="fill: none; stroke: #000000; stroke-width: 0.8; stroke-linejoin: miter; stroke-linecap: square"/>
   </g>
  </g>
  <g id="legend_1">
   <g id="line2d_52">
    <path d="M 117.733529 8.945781 
L 124.733529 8.945781 
L 131.733529 8.945781 
" style="fill: none; stroke: #4878d0; stroke-width: 1.5; stroke-linecap: square"/>
    <g>
     <use xlink:href="#m319f264aa7" x="124.733529" y="8.945781" style="fill: #4878d0; stroke: #ffffff; stroke-width: 0.75"/>
    </g>
   </g>
   <g id="text_34">
    <text style="font: 7px 'arial'; text-anchor: start" x="137.333529" y="11.395781" transform="rotate(-0 137.333529 11.395781)">dbghaplo</text>
   </g>
   <g id="line2d_53">
    <path d="M 180.137435 8.945781 
L 187.137435 8.945781 
L 194.137435 8.945781 
" style="fill: none; stroke: #ee854a; stroke-width: 1.5; stroke-linecap: square"/>
    <g>
     <use xlink:href="#m6027d56f59" x="187.137435" y="8.945781" style="fill: #ee854a; stroke: #ffffff; stroke-width: 0.75"/>
    </g>
   </g>
   <g id="text_35">
    <text style="font: 7px 'arial'; text-anchor: start" x="199.737435" y="11.395781" transform="rotate(-0 199.737435 11.395781)">rvhaplo</text>
   </g>
   <g id="line2d_54">
    <path d="M 236.694154 8.945781 
L 243.694154 8.945781 
L 250.694154 8.945781 
" style="fill: none; stroke: #6acc64; stroke-width: 1.5; stroke-linecap: square"/>
    <g>
     <use xlink:href="#m065e51bfed" x="243.694154" y="8.945781" style="fill: #6acc64; stroke: #ffffff; stroke-width: 0.75"/>
    </g>
   </g>
   <g id="text_36">
    <text style="font: 7px 'arial'; text-anchor: start" x="256.294154" y="11.395781" transform="rotate(-0 256.294154 11.395781)">cliqueSNV</text>
   </g>
   <g id="line2d_55">
    <path d="M 302.976497 8.945781 
L 309.976497 8.945781 
L 316.976497 8.945781 
" style="fill: none; stroke: #d65f5f; stroke-width: 1.5; stroke-linecap: square"/>
    <g>
     <use xlink:href="#m20fe9ed39b" x="309.976497" y="8.945781" style="fill: #d65f5f; stroke: #ffffff; stroke-width: 0.75"/>
    </g>
   </g>
   <g id="text_37">
    <text style="font: 7px 'arial'; text-anchor: start" x="322.576497" y="11.395781" transform="rotate(-0 322.576497 11.395781)">igda</text>
   </g>
  </g>
 </g>
 <defs>
  <clipPath id="pabbb450ee4">
   <rect x="34.76" y="7.56" width="113.691245" height="74.305827"/>
  </clipPath>
  <clipPath id="pa96cf25c31">
   <rect x="183.211245" y="7.56" width="113.691245" height="74.305827"/>
  </clipPath>
  <clipPath id="p661f4610e9">
   <rect x="331.662491" y="7.56" width="113.691245" height="74.305827"/>
  </clipPath>
 </defs>
</svg>
